<svg width="564" height="233" viewBox="0 0 564 233" fill="none" xmlns="http://www.w3.org/2000/svg">
<path d="M4.00364 35.993L4.02964 33.575H3.37964C2.74264 34.342 2.07964 34.628 0.389637 34.706V35.278H2.52164V42.051C2.52164 42.324 2.45664 42.441 2.11864 42.48L1.13064 42.545V43H4.97864V42.545L4.41964 42.493C4.06864 42.441 4.00364 42.324 4.00364 42.051V35.993ZM6.30393 38.255C6.30393 41.466 8.00693 43.169 10.2689 43.169C12.5179 43.169 14.2209 41.466 14.2209 38.255C14.2209 35.057 12.5179 33.354 10.2689 33.354C8.00693 33.354 6.30393 35.057 6.30393 38.255ZM7.95493 38.255C7.95493 35.603 8.77393 34.108 10.2689 34.108C11.7509 34.108 12.5829 35.603 12.5829 38.255C12.5829 40.907 11.7509 42.402 10.2689 42.402C8.77393 42.402 7.95493 40.907 7.95493 38.255ZM16.2317 38.255C16.2317 41.466 17.9347 43.169 20.1967 43.169C22.4457 43.169 24.1487 41.466 24.1487 38.255C24.1487 35.057 22.4457 33.354 20.1967 33.354C17.9347 33.354 16.2317 35.057 16.2317 38.255ZM17.8827 38.255C17.8827 35.603 18.7017 34.108 20.1967 34.108C21.6787 34.108 22.5107 35.603 22.5107 38.255C22.5107 40.907 21.6787 42.402 20.1967 42.402C18.7017 42.402 17.8827 40.907 17.8827 38.255Z" fill="black" fill-opacity="0.87"/>
<path d="M10.6787 136.169C12.7197 136.169 14.4097 134.895 14.4097 132.789C14.4097 130.462 12.7977 129.526 11.0037 129.526C10.0417 129.526 9.19668 129.838 8.63768 130.436L8.96268 127.836H13.9807V126.575H8.16968L7.57168 131.918L8.44268 132.1C8.78068 131.06 9.69068 130.462 10.6657 130.462C11.8487 130.462 12.8367 131.216 12.8367 132.854C12.8367 134.349 12.0827 135.402 10.6917 135.402C9.48268 135.402 8.71568 134.427 8.71568 133.335H7.27268C7.33768 134.882 8.67668 136.169 10.6787 136.169ZM15.8166 131.255C15.8166 134.466 17.5196 136.169 19.7816 136.169C22.0306 136.169 23.7336 134.466 23.7336 131.255C23.7336 128.057 22.0306 126.354 19.7816 126.354C17.5196 126.354 15.8166 128.057 15.8166 131.255ZM17.4676 131.255C17.4676 128.603 18.2866 127.108 19.7816 127.108C21.2636 127.108 22.0956 128.603 22.0956 131.255C22.0956 133.907 21.2636 135.402 19.7816 135.402C18.2866 135.402 17.4676 133.907 17.4676 131.255Z" fill="black" fill-opacity="0.87"/>
<path d="M8.93084 190.526C11.9988 188.42 14.6118 186.73 14.6118 184.702C14.6118 182.973 13.2078 182.154 11.3488 182.154C9.28184 182.154 7.64384 183.363 7.74784 185.612H9.22984C9.11284 184.039 9.69784 182.908 11.2708 182.908C12.3108 182.908 13.0518 183.597 13.0518 184.715C13.0518 186.288 11.9208 187.523 7.39684 190.539V191.8H14.6378V190.526H8.93084ZM16.0945 187.055C16.0945 190.266 17.7975 191.969 20.0595 191.969C22.3085 191.969 24.0115 190.266 24.0115 187.055C24.0115 183.857 22.3085 182.154 20.0595 182.154C17.7975 182.154 16.0945 183.857 16.0945 187.055ZM17.7455 187.055C17.7455 184.403 18.5645 182.908 20.0595 182.908C21.5415 182.908 22.3735 184.403 22.3735 187.055C22.3735 189.707 21.5415 191.202 20.0595 191.202C18.5645 191.202 17.7455 189.707 17.7455 187.055Z" fill="black" fill-opacity="0.87"/>
<path d="M16.0446 224.255C16.0446 227.466 17.7476 229.169 20.0096 229.169C22.2586 229.169 23.9616 227.466 23.9616 224.255C23.9616 221.057 22.2586 219.354 20.0096 219.354C17.7476 219.354 16.0446 221.057 16.0446 224.255ZM17.6956 224.255C17.6956 221.603 18.5146 220.108 20.0096 220.108C21.4916 220.108 22.3236 221.603 22.3236 224.255C22.3236 226.907 21.4916 228.402 20.0096 228.402C18.5146 228.402 17.6956 226.907 17.6956 224.255Z" fill="black" fill-opacity="0.87"/>
<rect width="535" height="50" transform="translate(29)" fill="#4BB6DB" fill-opacity="0.3"/>
<path d="M450.784 19.85V20.34L451.54 20.396C451.848 20.424 451.946 20.522 451.946 20.788V29.062C451.946 29.328 451.848 29.426 451.54 29.44L450.784 29.496V30H458.904V26.962H458.372L458.162 28.152C457.98 29.244 457.77 29.272 456.496 29.272H453.416V25.156H457.42V24.372H453.416V20.578H456.37C457.644 20.578 457.882 20.62 458.05 21.684L458.246 22.888H458.778V19.85H450.784ZM461.651 28.6C461.091 29.286 460.895 29.44 460.433 29.482L460.097 29.51V30H463.051V29.51L462.547 29.468C462.071 29.426 462.141 29.23 462.561 28.712L464.031 26.934L465.627 29.034C465.865 29.314 465.823 29.44 465.389 29.482L464.941 29.51V30H468.343V29.51L467.951 29.482C467.629 29.454 467.531 29.342 467.265 29.006L464.899 25.884L466.565 23.868C467.125 23.182 467.321 23.028 467.783 22.986L468.105 22.958V22.468H465.179V22.958L465.683 23C466.131 23.042 466.075 23.238 465.641 23.756L464.409 25.254L463.051 23.434C462.813 23.154 462.855 23.028 463.275 22.986L463.723 22.958V22.468H460.335V22.958L460.727 22.986C461.049 23.014 461.147 23.126 461.413 23.462L463.555 26.29L461.651 28.6ZM468.965 26.262C468.965 28.544 470.407 30.182 472.521 30.182C474.103 30.182 475.545 29.384 475.825 27.648H474.467C474.383 28.866 473.599 29.454 472.577 29.454C471.009 29.454 470.449 27.9 470.449 26.262C470.449 24.624 471.009 23.084 472.577 23.084C473.585 23.084 474.355 23.672 474.453 24.89H475.811C475.517 23.168 474.103 22.342 472.521 22.342C470.407 22.342 468.965 23.966 468.965 26.262ZM480.933 29.454C479.379 29.454 478.707 28.166 478.679 26.318H484.237C484.251 23.518 482.585 22.342 480.835 22.342C478.693 22.342 477.237 24.008 477.237 26.29C477.237 28.488 478.553 30.182 480.849 30.182C482.389 30.182 483.887 29.384 484.181 27.76H482.823C482.697 28.894 481.969 29.454 480.933 29.454ZM480.793 23.042C481.885 23.042 482.781 23.784 482.781 25.562H478.693C478.805 23.882 479.673 23.042 480.793 23.042ZM486.961 27.634H485.617C485.729 29.118 486.849 30.182 488.879 30.182C490.601 30.182 491.973 29.412 491.973 27.844C491.973 26.444 490.727 25.884 489.313 25.604L488.459 25.436C487.563 25.254 486.989 24.862 486.989 24.19C486.989 23.42 487.899 23.084 488.627 23.084C489.635 23.084 490.419 23.602 490.503 24.526H491.833C491.609 23.07 490.293 22.342 488.753 22.342C487.115 22.342 485.827 23.098 485.827 24.442C485.827 25.66 486.807 26.346 488.011 26.598L488.921 26.766C490.013 26.99 490.797 27.354 490.797 28.18C490.797 28.922 490.041 29.454 488.949 29.454C487.787 29.454 487.073 28.768 486.961 27.634ZM494.604 27.634H493.26C493.372 29.118 494.492 30.182 496.522 30.182C498.244 30.182 499.616 29.412 499.616 27.844C499.616 26.444 498.37 25.884 496.956 25.604L496.102 25.436C495.206 25.254 494.632 24.862 494.632 24.19C494.632 23.42 495.542 23.084 496.27 23.084C497.278 23.084 498.062 23.602 498.146 24.526H499.476C499.252 23.07 497.936 22.342 496.396 22.342C494.758 22.342 493.47 23.098 493.47 24.442C493.47 25.66 494.45 26.346 495.654 26.598L496.564 26.766C497.656 26.99 498.44 27.354 498.44 28.18C498.44 28.922 497.684 29.454 496.592 29.454C495.43 29.454 494.716 28.768 494.604 27.634ZM516.362 29.062V20.802C516.362 20.564 516.432 20.424 516.754 20.396L517.524 20.34V19.85H514.542L511.28 27.886L508.088 19.85H504.938V20.34L505.694 20.396C506.002 20.424 506.128 20.536 506.128 20.802V28.838C506.128 29.314 506.058 29.44 505.554 29.468L504.966 29.496V30H508.172V29.496L507.584 29.468C507.08 29.44 506.996 29.314 506.996 28.838V21.138L510.608 30H511.294L514.892 21.11V29.062C514.892 29.328 514.794 29.426 514.472 29.44L513.73 29.496V30H517.524V29.496L516.768 29.44C516.446 29.426 516.362 29.328 516.362 29.062ZM524.073 28.642H524.101L524.171 30.056L526.313 29.93V29.44L525.725 29.37C525.403 29.342 525.333 29.3 525.319 29.006C525.291 28.306 525.291 27.774 525.291 27.06C525.291 26.332 525.305 25.716 525.319 25.212C525.375 23 524.241 22.342 522.393 22.342C520.671 22.342 519.439 23.35 519.341 24.82H520.671C520.755 23.798 521.147 23.028 522.351 23.028C523.415 23.028 523.947 23.574 523.947 24.876V25.534C521.217 25.87 519.117 26.36 519.117 28.138C519.117 29.384 520.153 30.182 521.483 30.182C522.897 30.182 523.597 29.552 524.073 28.642ZM524.003 26.682C524.003 28.726 523.107 29.356 521.973 29.356C521.105 29.356 520.601 28.838 520.601 28.096C520.601 26.64 522.127 26.458 524.003 26.234V26.682ZM529.85 22.468H527.498V22.944L528.1 23.014C528.436 23.07 528.506 23.14 528.506 23.42V29.076C528.506 29.37 528.422 29.426 528.1 29.454L527.498 29.51V30H531.474V29.496L530.298 29.44C529.976 29.426 529.878 29.356 529.878 29.062V25.702C529.878 24.176 530.494 23.686 531.684 23.686H532.874V22.398H532.16C531.068 22.398 530.256 23.07 529.892 24.036H529.864L529.85 22.468ZM541.081 23.266V22.468L538.127 22.594C537.707 22.426 537.245 22.342 536.769 22.342C535.187 22.342 533.773 23.182 533.773 24.96C533.773 26.164 534.501 26.962 535.481 27.312C534.627 27.48 533.997 27.858 533.997 28.46C533.997 28.95 534.277 29.44 535.215 29.664C534.291 29.804 533.451 30.266 533.451 30.994C533.451 31.988 534.627 32.758 536.783 32.758C539.443 32.758 540.717 31.526 540.717 30.364C540.717 29.496 540.157 28.866 538.211 28.74L536.335 28.628C535.509 28.572 535.215 28.418 535.215 28.026C535.215 27.704 535.551 27.55 535.915 27.438C536.167 27.494 536.447 27.522 536.727 27.522C538.477 27.522 539.653 26.458 539.653 24.89C539.653 24.176 539.415 23.616 539.037 23.196L541.081 23.266ZM536.769 26.864C535.887 26.864 535.145 26.248 535.145 24.96C535.145 23.602 535.775 22.986 536.769 22.986C537.721 22.986 538.309 23.658 538.309 24.918C538.309 26.192 537.707 26.864 536.769 26.864ZM535.999 29.776L537.903 29.874C539.093 29.958 539.471 30.182 539.471 30.77C539.471 31.554 538.379 32.03 536.895 32.03C535.341 32.03 534.613 31.568 534.613 30.812C534.613 30.308 535.061 29.93 535.621 29.748C535.733 29.762 535.859 29.776 535.999 29.776ZM544.384 22.468H541.99V22.944L542.592 23.014C542.928 23.07 542.998 23.14 542.998 23.42V29.076C542.998 29.37 542.914 29.426 542.592 29.454L541.99 29.51V30H545.364V29.51L544.79 29.454C544.468 29.426 544.37 29.37 544.37 29.076V24.036L544.384 22.468ZM542.998 21.32H544.37V19.57H542.998V21.32ZM553.707 24.932C553.707 23.686 553.273 22.342 551.509 22.342C550.347 22.342 549.521 22.93 549.073 23.798H549.059V22.468H546.693V22.944L547.295 23.014C547.631 23.07 547.701 23.14 547.701 23.42V29.076C547.701 29.37 547.617 29.426 547.295 29.454L546.693 29.51V30H550.067V29.51L549.493 29.454C549.171 29.426 549.073 29.37 549.073 29.076V25.562C549.073 23.868 550.081 23.21 550.907 23.21C551.943 23.21 552.335 23.896 552.335 25.324V29.076C552.335 29.37 552.223 29.426 551.915 29.454L551.327 29.51V30H554.715V29.51L554.127 29.454C553.819 29.426 553.707 29.37 553.707 29.076V24.932Z" fill="black" fill-opacity="0.87"/>
<rect width="535" height="83" transform="translate(29 50)" fill="#A4DB4B" fill-opacity="0.4"/>
<path d="M467.893 86.35H466.773L464.463 94.68L462.713 87.526C462.587 87.036 462.615 86.924 463.217 86.896L463.875 86.84V86.35H459.955V86.84L460.347 86.868C460.879 86.896 461.005 87.064 461.131 87.512L463.637 96.5H464.813L467.067 88.562L469.307 96.5H470.497L472.765 88.002C473.031 87.064 473.199 86.896 473.745 86.868L474.151 86.84V86.35H470.833V86.84L471.449 86.882C472.037 86.91 472.065 87.05 471.869 87.834L470.147 94.694L467.893 86.35ZM477.286 88.968H474.892V89.444L475.494 89.514C475.83 89.57 475.9 89.64 475.9 89.92V95.576C475.9 95.87 475.816 95.926 475.494 95.954L474.892 96.01V96.5H478.266V96.01L477.692 95.954C477.37 95.926 477.272 95.87 477.272 95.576V90.536L477.286 88.968ZM475.9 87.82H477.272V86.07H475.9V87.82ZM483.964 88.968H481.724V86.532H480.352V88.968H478.994V89.766H480.352V94.61C480.352 96.192 480.828 96.5 482.48 96.5H483.894V95.632H482.788C481.976 95.632 481.724 95.45 481.724 94.484V89.766H483.964V88.968ZM492.074 91.432C492.074 90.186 491.612 88.842 489.862 88.842C488.714 88.842 487.888 89.43 487.454 90.298H487.426C487.426 90.298 487.44 89.374 487.44 89.192V87.652L487.454 86.07H485.06V86.56L485.634 86.63C485.984 86.658 486.068 86.7 486.068 86.994V95.576C486.068 95.87 485.956 95.926 485.634 95.954L485.06 96.01V96.5H488.448V96.01L487.86 95.954C487.538 95.926 487.44 95.87 487.44 95.576V92.062C487.44 90.368 488.434 89.71 489.26 89.71C490.31 89.71 490.702 90.396 490.702 91.824V95.576C490.702 95.87 490.604 95.926 490.282 95.954L489.708 96.01V96.5H493.068V96.01L492.494 95.954C492.172 95.926 492.074 95.87 492.074 95.576V91.432ZM496.646 88.968H494.252V89.444L494.854 89.514C495.19 89.57 495.26 89.64 495.26 89.92V95.576C495.26 95.87 495.176 95.926 494.854 95.954L494.252 96.01V96.5H497.626V96.01L497.052 95.954C496.73 95.926 496.632 95.87 496.632 95.576V90.536L496.646 88.968ZM495.26 87.82H496.632V86.07H495.26V87.82ZM505.969 91.432C505.969 90.186 505.535 88.842 503.771 88.842C502.609 88.842 501.783 89.43 501.335 90.298H501.321V88.968H498.955V89.444L499.557 89.514C499.893 89.57 499.963 89.64 499.963 89.92V95.576C499.963 95.87 499.879 95.926 499.557 95.954L498.955 96.01V96.5H502.329V96.01L501.755 95.954C501.433 95.926 501.335 95.87 501.335 95.576V92.062C501.335 90.368 502.343 89.71 503.169 89.71C504.205 89.71 504.597 90.396 504.597 91.824V95.576C504.597 95.87 504.485 95.926 504.177 95.954L503.589 96.01V96.5H506.977V96.01L506.389 95.954C506.081 95.926 505.969 95.87 505.969 95.576V91.432ZM512.038 86.84L512.794 86.896C513.102 86.924 513.2 87.022 513.2 87.288V95.562C513.2 95.828 513.102 95.926 512.794 95.94L512.038 95.996V96.5C512.038 96.5 515.818 96.514 516.336 96.514C519.64 96.514 520.508 95.142 520.508 93.616C520.508 92.048 519.332 91.334 517.918 91.082V91.054C519.066 90.774 520.018 90.046 520.018 88.632C520.018 87.12 518.688 86.336 516.238 86.336C515.734 86.336 512.038 86.35 512.038 86.35V86.84ZM514.67 87.078H516.098C517.862 87.078 518.506 87.708 518.506 88.856C518.506 89.948 518.072 90.844 516.098 90.844H514.67V87.078ZM514.67 91.6H516.154C518.086 91.6 518.926 92.174 518.926 93.63C518.926 95.128 518.24 95.772 516.084 95.772H514.67V91.6ZM526.894 96.598L529.218 96.402V95.94L528.644 95.87C528.322 95.842 528.224 95.8 528.224 95.492V90.564L528.238 88.968H525.844V89.444L526.446 89.514C526.782 89.57 526.852 89.64 526.852 89.92V93.476C526.852 95.156 525.914 95.814 525.116 95.814C524.08 95.814 523.744 95.142 523.744 93.7V90.564L523.758 88.968H521.364V89.444L521.966 89.514C522.316 89.57 522.372 89.64 522.372 89.92V94.106C522.372 95.338 522.764 96.682 524.5 96.682C525.662 96.682 526.404 96.108 526.838 95.226H526.866L526.894 96.598ZM534.569 95.996L533.379 95.94C533.057 95.926 532.973 95.856 532.973 95.562V89.766H535.479V88.968H532.973V87.946C532.973 87.12 533.239 86.966 534.163 86.966H535.479V86.07H534.303C532.357 86.07 531.601 86.434 531.601 88.03V88.968H530.565V89.766H531.601V95.576C531.601 95.87 531.517 95.926 531.195 95.954L530.607 96.01V96.5H534.569V95.996ZM540.448 95.996L539.258 95.94C538.936 95.926 538.852 95.856 538.852 95.562V89.766H541.358V88.968H538.852V87.946C538.852 87.12 539.118 86.966 540.042 86.966H541.358V86.07H540.182C538.236 86.07 537.48 86.434 537.48 88.03V88.968H536.444V89.766H537.48V95.576C537.48 95.87 537.396 95.926 537.074 95.954L536.486 96.01V96.5H540.448V95.996ZM545.728 95.954C544.174 95.954 543.502 94.666 543.474 92.818H549.032C549.046 90.018 547.38 88.842 545.63 88.842C543.488 88.842 542.032 90.508 542.032 92.79C542.032 94.988 543.348 96.682 545.644 96.682C547.184 96.682 548.682 95.884 548.976 94.26H547.618C547.492 95.394 546.764 95.954 545.728 95.954ZM545.588 89.542C546.68 89.542 547.576 90.284 547.576 92.062H543.488C543.6 90.382 544.468 89.542 545.588 89.542ZM552.85 88.968H550.498V89.444L551.1 89.514C551.436 89.57 551.506 89.64 551.506 89.92V95.576C551.506 95.87 551.422 95.926 551.1 95.954L550.498 96.01V96.5H554.474V95.996L553.298 95.94C552.976 95.926 552.878 95.856 552.878 95.562V92.202C552.878 90.676 553.494 90.186 554.684 90.186H555.874V88.898H555.16C554.068 88.898 553.256 89.57 552.892 90.536H552.864L552.85 88.968Z" fill="black" fill-opacity="0.87"/>
<mask id="path-7-inside-1_9917_66282" fill="white">
<path d="M29 133H564V183H29V133Z"/>
</mask>
<path d="M29 133H564V183H29V133Z" fill="#DCBF4B" fill-opacity="0.4"/>
<path d="M440.754 157.918C440.754 161.474 438.78 162.272 436.4 162.272H435.462V153.578H436.4C438.78 153.578 440.754 154.376 440.754 157.918ZM442.336 157.918C442.336 154.124 439.774 152.836 436.372 152.836C435.952 152.836 432.83 152.85 432.83 152.85V153.34L433.586 153.396C433.894 153.424 433.992 153.522 433.992 153.788V162.062C433.992 162.328 433.894 162.426 433.586 162.44L432.83 162.496V163C432.83 163 435.966 163.014 436.372 163.014C439.774 163.014 442.336 161.726 442.336 157.918ZM447.502 162.454C445.948 162.454 445.276 161.166 445.248 159.318H450.806C450.82 156.518 449.154 155.342 447.404 155.342C445.262 155.342 443.806 157.008 443.806 159.29C443.806 161.488 445.122 163.182 447.418 163.182C448.958 163.182 450.456 162.384 450.75 160.76H449.392C449.266 161.894 448.538 162.454 447.502 162.454ZM447.362 156.042C448.454 156.042 449.35 156.784 449.35 158.562H445.262C445.374 156.882 446.242 156.042 447.362 156.042ZM454.204 159.262C454.204 156.924 455.324 156.168 456.276 156.168C457.452 156.168 458.292 157.33 458.292 159.262C458.292 161.194 457.438 162.356 456.22 162.356C455.184 162.356 454.204 161.628 454.204 159.262ZM454.274 155.468H451.922V155.944L452.524 156.014C452.86 156.07 452.93 156.14 452.93 156.42V164.722C452.93 165.016 452.846 165.058 452.524 165.1L451.922 165.156V165.646H455.646V165.156L454.736 165.1C454.414 165.072 454.302 165.016 454.302 164.708V162.846C454.302 162.664 454.288 161.978 454.274 161.824H454.302C454.68 162.524 455.408 163.182 456.472 163.182C458.292 163.182 459.762 161.628 459.762 159.262C459.762 156.924 458.46 155.342 456.71 155.342C455.52 155.342 454.736 156.028 454.288 156.854H454.26L454.274 155.468ZM462.749 159.262C462.749 157.05 463.659 156.056 464.863 156.056C466.067 156.056 466.977 157.05 466.977 159.262C466.977 161.474 466.067 162.468 464.863 162.468C463.659 162.468 462.749 161.474 462.749 159.262ZM468.447 159.262C468.447 156.896 466.921 155.342 464.863 155.342C462.805 155.342 461.279 156.896 461.279 159.262C461.279 161.628 462.805 163.182 464.863 163.182C466.921 163.182 468.447 161.628 468.447 159.262ZM471.236 160.634H469.892C470.004 162.118 471.124 163.182 473.154 163.182C474.876 163.182 476.248 162.412 476.248 160.844C476.248 159.444 475.002 158.884 473.588 158.604L472.734 158.436C471.838 158.254 471.264 157.862 471.264 157.19C471.264 156.42 472.174 156.084 472.902 156.084C473.91 156.084 474.694 156.602 474.778 157.526H476.108C475.884 156.07 474.568 155.342 473.028 155.342C471.39 155.342 470.102 156.098 470.102 157.442C470.102 158.66 471.082 159.346 472.286 159.598L473.196 159.766C474.288 159.99 475.072 160.354 475.072 161.18C475.072 161.922 474.316 162.454 473.224 162.454C472.062 162.454 471.348 161.768 471.236 160.634ZM480.082 155.468H477.688V155.944L478.29 156.014C478.626 156.07 478.696 156.14 478.696 156.42V162.076C478.696 162.37 478.612 162.426 478.29 162.454L477.688 162.51V163H481.062V162.51L480.488 162.454C480.166 162.426 480.068 162.37 480.068 162.076V157.036L480.082 155.468ZM478.696 154.32H480.068V152.57H478.696V154.32ZM486.759 155.468H484.519V153.032H483.147V155.468H481.789V156.266H483.147V161.11C483.147 162.692 483.623 163 485.275 163H486.689V162.132H485.583C484.771 162.132 484.519 161.95 484.519 160.984V156.266H486.759V155.468ZM491.92 153.34L492.676 153.396C492.984 153.424 493.082 153.522 493.082 153.788V162.062C493.082 162.328 492.984 162.426 492.676 162.44L491.92 162.496V163H495.854V162.496L494.958 162.44C494.636 162.398 494.552 162.314 494.552 162.048V158.506H495.56C495.826 158.506 496.092 158.506 496.344 158.478L498.248 161.74L498.948 163H501.328V162.496L500.852 162.468C500.39 162.454 500.236 162.272 499.942 161.782L497.814 158.212C499.172 157.792 499.928 156.924 499.928 155.622C499.928 153.634 498.36 152.836 495.56 152.836C494.65 152.836 492.41 152.85 491.92 152.85V153.34ZM495.728 153.564C497.422 153.564 498.374 154.18 498.374 155.65C498.374 157.134 497.422 157.778 495.728 157.778H494.552V153.564H495.728ZM505.649 162.454C504.095 162.454 503.423 161.166 503.395 159.318H508.953C508.967 156.518 507.301 155.342 505.551 155.342C503.409 155.342 501.953 157.008 501.953 159.29C501.953 161.488 503.269 163.182 505.565 163.182C507.105 163.182 508.603 162.384 508.897 160.76H507.539C507.413 161.894 506.685 162.454 505.649 162.454ZM505.509 156.042C506.601 156.042 507.497 156.784 507.497 158.562H503.409C503.521 156.882 504.389 156.042 505.509 156.042ZM516.07 159.262C516.07 161.6 514.922 162.356 513.97 162.356C512.794 162.356 511.968 161.194 511.968 159.262C511.968 157.33 512.822 156.168 514.04 156.168C515.09 156.168 516.07 156.91 516.07 159.262ZM515.944 164.708C515.944 165.016 515.846 165.072 515.524 165.1L514.614 165.156V165.646H518.31V165.156L517.736 165.1C517.414 165.058 517.316 165.016 517.316 164.722V158.016L517.358 155.468H516.49L516.14 156.588H516.112C515.664 155.902 514.838 155.342 513.788 155.342C511.954 155.342 510.498 156.882 510.498 159.262C510.498 161.6 511.786 163.182 513.536 163.182C514.754 163.182 515.51 162.51 515.958 161.684H515.972C515.958 162.048 515.944 162.384 515.944 162.846V164.708ZM524.494 163.098L526.818 162.902V162.44L526.244 162.37C525.922 162.342 525.824 162.3 525.824 161.992V157.064L525.838 155.468H523.444V155.944L524.046 156.014C524.382 156.07 524.452 156.14 524.452 156.42V159.976C524.452 161.656 523.514 162.314 522.716 162.314C521.68 162.314 521.344 161.642 521.344 160.2V157.064L521.358 155.468H518.964V155.944L519.566 156.014C519.916 156.07 519.972 156.14 519.972 156.42V160.606C519.972 161.838 520.364 163.182 522.1 163.182C523.262 163.182 524.004 162.608 524.438 161.726H524.466L524.494 163.098ZM530.545 155.468H528.151V155.944L528.753 156.014C529.089 156.07 529.159 156.14 529.159 156.42V162.076C529.159 162.37 529.075 162.426 528.753 162.454L528.151 162.51V163H531.525V162.51L530.951 162.454C530.629 162.426 530.531 162.37 530.531 162.076V157.036L530.545 155.468ZM529.159 154.32H530.531V152.57H529.159V154.32ZM535.206 155.468H532.854V155.944L533.456 156.014C533.792 156.07 533.862 156.14 533.862 156.42V162.076C533.862 162.37 533.778 162.426 533.456 162.454L532.854 162.51V163H536.83V162.496L535.654 162.44C535.332 162.426 535.234 162.356 535.234 162.062V158.702C535.234 157.176 535.85 156.686 537.04 156.686H538.23V155.398H537.516C536.424 155.398 535.612 156.07 535.248 157.036H535.22L535.206 155.468ZM542.699 162.454C541.145 162.454 540.473 161.166 540.445 159.318H546.003C546.017 156.518 544.351 155.342 542.601 155.342C540.459 155.342 539.003 157.008 539.003 159.29C539.003 161.488 540.319 163.182 542.615 163.182C544.155 163.182 545.653 162.384 545.947 160.76H544.589C544.463 161.894 543.735 162.454 542.699 162.454ZM542.559 156.042C543.651 156.042 544.547 156.784 544.547 158.562H540.459C540.571 156.882 541.439 156.042 542.559 156.042ZM553.121 159.262C553.121 161.6 551.973 162.356 551.021 162.356C549.845 162.356 549.019 161.194 549.019 159.262C549.019 157.33 549.873 156.168 551.091 156.168C552.141 156.168 553.121 156.91 553.121 159.262ZM551.833 152.57V153.06L552.575 153.13C552.897 153.158 552.995 153.2 552.995 153.508V155.496C552.995 155.762 553.009 156.014 553.023 156.7H552.995C552.631 156 551.889 155.342 550.839 155.342C549.005 155.342 547.535 156.882 547.535 159.276C547.535 161.614 548.837 163.182 550.601 163.182C551.805 163.182 552.575 162.496 553.023 161.67H553.051L553.093 163.056L555.361 162.902V162.44L554.787 162.37C554.465 162.342 554.367 162.3 554.367 161.992V154.166L554.381 152.57H551.833Z" fill="black" fill-opacity="0.87"/>
<path d="M29 136H564V130H29V136Z" fill="#C0A742" mask="url(#path-7-inside-1_9917_66282)"/>
<mask id="path-10-inside-2_9917_66282" fill="white">
<path d="M29 183H564V233H29V183Z"/>
</mask>
<path d="M29 183H564V233H29V183Z" fill="#DC4B63" fill-opacity="0.4"/>
<path d="M474.784 213H482.652V209.962H482.134L481.938 211.152C481.756 212.244 481.56 212.272 480.272 212.272H477.416V203.788C477.416 203.522 477.5 203.424 477.822 203.396L478.648 203.34V202.85H474.784V203.34L475.54 203.396C475.848 203.424 475.946 203.522 475.946 203.788V212.062C475.946 212.328 475.848 212.426 475.54 212.44L474.784 212.496V213ZM486.161 205.468H483.767V205.944L484.369 206.014C484.705 206.07 484.775 206.14 484.775 206.42V212.076C484.775 212.37 484.691 212.426 484.369 212.454L483.767 212.51V213H487.141V212.51L486.567 212.454C486.245 212.426 486.147 212.37 486.147 212.076V207.036L486.161 205.468ZM484.775 204.32H486.147V202.57H484.775V204.32ZM493.917 209.262C493.917 211.6 492.769 212.356 491.817 212.356C490.641 212.356 489.815 211.194 489.815 209.262C489.815 207.33 490.669 206.168 491.887 206.168C492.937 206.168 493.917 206.91 493.917 209.262ZM493.791 214.708C493.791 215.016 493.693 215.072 493.371 215.1L492.461 215.156V215.646H496.157V215.156L495.583 215.1C495.261 215.058 495.163 215.016 495.163 214.722V208.016L495.205 205.468H494.337L493.987 206.588H493.959C493.511 205.902 492.685 205.342 491.635 205.342C489.801 205.342 488.345 206.882 488.345 209.262C488.345 211.6 489.633 213.182 491.383 213.182C492.601 213.182 493.357 212.51 493.805 211.684H493.819C493.805 212.048 493.791 212.384 493.791 212.846V214.708ZM502.341 213.098L504.665 212.902V212.44L504.091 212.37C503.769 212.342 503.671 212.3 503.671 211.992V207.064L503.685 205.468H501.291V205.944L501.893 206.014C502.229 206.07 502.299 206.14 502.299 206.42V209.976C502.299 211.656 501.361 212.314 500.563 212.314C499.527 212.314 499.191 211.642 499.191 210.2V207.064L499.205 205.468H496.811V205.944L497.413 206.014C497.763 206.07 497.819 206.14 497.819 206.42V210.606C497.819 211.838 498.211 213.182 499.947 213.182C501.109 213.182 501.851 212.608 502.285 211.726H502.313L502.341 213.098ZM508.392 205.468H505.998V205.944L506.6 206.014C506.936 206.07 507.006 206.14 507.006 206.42V212.076C507.006 212.37 506.922 212.426 506.6 212.454L505.998 212.51V213H509.372V212.51L508.798 212.454C508.476 212.426 508.378 212.37 508.378 212.076V207.036L508.392 205.468ZM507.006 204.32H508.378V202.57H507.006V204.32ZM516.147 209.262C516.147 211.6 514.999 212.356 514.047 212.356C512.871 212.356 512.045 211.194 512.045 209.262C512.045 207.33 512.899 206.168 514.117 206.168C515.167 206.168 516.147 206.91 516.147 209.262ZM514.859 202.57V203.06L515.601 203.13C515.923 203.158 516.021 203.2 516.021 203.508V205.496C516.021 205.762 516.035 206.014 516.049 206.7H516.021C515.657 206 514.915 205.342 513.865 205.342C512.031 205.342 510.561 206.882 510.561 209.276C510.561 211.614 511.863 213.182 513.627 213.182C514.831 213.182 515.601 212.496 516.049 211.67H516.077L516.119 213.056L518.387 212.902V212.44L517.813 212.37C517.491 212.342 517.393 212.3 517.393 211.992V204.166L517.407 202.57H514.859ZM524.748 211.642H524.776L524.846 213.056L526.988 212.93V212.44L526.4 212.37C526.078 212.342 526.008 212.3 525.994 212.006C525.966 211.306 525.966 210.774 525.966 210.06C525.966 209.332 525.98 208.716 525.994 208.212C526.05 206 524.916 205.342 523.068 205.342C521.346 205.342 520.114 206.35 520.016 207.82H521.346C521.43 206.798 521.822 206.028 523.026 206.028C524.09 206.028 524.622 206.574 524.622 207.876V208.534C521.892 208.87 519.792 209.36 519.792 211.138C519.792 212.384 520.828 213.182 522.158 213.182C523.572 213.182 524.272 212.552 524.748 211.642ZM524.678 209.682C524.678 211.726 523.782 212.356 522.648 212.356C521.78 212.356 521.276 211.838 521.276 211.096C521.276 209.64 522.802 209.458 524.678 209.234V209.682ZM532.542 205.468H530.302V203.032H528.93V205.468H527.572V206.266H528.93V211.11C528.93 212.692 529.406 213 531.058 213H532.472V212.132H531.366C530.554 212.132 530.302 211.95 530.302 210.984V206.266H532.542V205.468ZM536.214 205.468H533.82V205.944L534.422 206.014C534.758 206.07 534.828 206.14 534.828 206.42V212.076C534.828 212.37 534.744 212.426 534.422 212.454L533.82 212.51V213H537.194V212.51L536.62 212.454C536.298 212.426 536.2 212.37 536.2 212.076V207.036L536.214 205.468ZM534.828 204.32H536.2V202.57H534.828V204.32ZM539.867 209.262C539.867 207.05 540.777 206.056 541.981 206.056C543.185 206.056 544.095 207.05 544.095 209.262C544.095 211.474 543.185 212.468 541.981 212.468C540.777 212.468 539.867 211.474 539.867 209.262ZM545.565 209.262C545.565 206.896 544.039 205.342 541.981 205.342C539.923 205.342 538.397 206.896 538.397 209.262C538.397 211.628 539.923 213.182 541.981 213.182C544.039 213.182 545.565 211.628 545.565 209.262ZM554.11 207.932C554.11 206.686 553.676 205.342 551.912 205.342C550.75 205.342 549.924 205.93 549.476 206.798H549.462V205.468H547.096V205.944L547.698 206.014C548.034 206.07 548.104 206.14 548.104 206.42V212.076C548.104 212.37 548.02 212.426 547.698 212.454L547.096 212.51V213H550.47V212.51L549.896 212.454C549.574 212.426 549.476 212.37 549.476 212.076V208.562C549.476 206.868 550.484 206.21 551.31 206.21C552.346 206.21 552.738 206.896 552.738 208.324V212.076C552.738 212.37 552.626 212.426 552.318 212.454L551.73 212.51V213H555.118V212.51L554.53 212.454C554.222 212.426 554.11 212.37 554.11 212.076V207.932Z" fill="black" fill-opacity="0.87"/>
<path d="M29 186H564V180H29V186Z" fill="#C04257" mask="url(#path-10-inside-2_9917_66282)"/>
<path d="M30 83H51.6258H73.2516V156.875L97.8264 156.893V166.892L171.551 166.928L269.85 167V108.378H292.459L314.084 108.378H425" stroke="#494849" stroke-width="2"/>
</svg>
