<svg width="564" height="235" viewBox="0 0 564 235" fill="none" xmlns="http://www.w3.org/2000/svg">
<path d="M4.00364 37.993L4.02964 35.575H3.37964C2.74264 36.342 2.07964 36.628 0.389637 36.706V37.278H2.52164V44.051C2.52164 44.324 2.45664 44.441 2.11864 44.48L1.13064 44.545V45H4.97864V44.545L4.41964 44.493C4.06864 44.441 4.00364 44.324 4.00364 44.051V37.993ZM6.30393 40.255C6.30393 43.466 8.00693 45.169 10.2689 45.169C12.5179 45.169 14.2209 43.466 14.2209 40.255C14.2209 37.057 12.5179 35.354 10.2689 35.354C8.00693 35.354 6.30393 37.057 6.30393 40.255ZM7.95493 40.255C7.95493 37.603 8.77393 36.108 10.2689 36.108C11.7509 36.108 12.5829 37.603 12.5829 40.255C12.5829 42.907 11.7509 44.402 10.2689 44.402C8.77393 44.402 7.95493 42.907 7.95493 40.255ZM16.2317 40.255C16.2317 43.466 17.9347 45.169 20.1967 45.169C22.4457 45.169 24.1487 43.466 24.1487 40.255C24.1487 37.057 22.4457 35.354 20.1967 35.354C17.9347 35.354 16.2317 37.057 16.2317 40.255ZM17.8827 40.255C17.8827 37.603 18.7017 36.108 20.1967 36.108C21.6787 36.108 22.5107 37.603 22.5107 40.255C22.5107 42.907 21.6787 44.402 20.1967 44.402C18.7017 44.402 17.8827 42.907 17.8827 40.255Z" fill="black" fill-opacity="0.87"/>
<path d="M10.6787 138.169C12.7197 138.169 14.4097 136.895 14.4097 134.789C14.4097 132.462 12.7977 131.526 11.0037 131.526C10.0417 131.526 9.19668 131.838 8.63768 132.436L8.96268 129.836H13.9807V128.575H8.16968L7.57168 133.918L8.44268 134.1C8.78068 133.06 9.69068 132.462 10.6657 132.462C11.8487 132.462 12.8367 133.216 12.8367 134.854C12.8367 136.349 12.0827 137.402 10.6917 137.402C9.48268 137.402 8.71568 136.427 8.71568 135.335H7.27268C7.33768 136.882 8.67668 138.169 10.6787 138.169ZM15.8166 133.255C15.8166 136.466 17.5196 138.169 19.7816 138.169C22.0306 138.169 23.7336 136.466 23.7336 133.255C23.7336 130.057 22.0306 128.354 19.7816 128.354C17.5196 128.354 15.8166 130.057 15.8166 133.255ZM17.4676 133.255C17.4676 130.603 18.2866 129.108 19.7816 129.108C21.2636 129.108 22.0956 130.603 22.0956 133.255C22.0956 135.907 21.2636 137.402 19.7816 137.402C18.2866 137.402 17.4676 135.907 17.4676 133.255Z" fill="black" fill-opacity="0.87"/>
<path d="M8.93084 192.526C11.9988 190.42 14.6118 188.73 14.6118 186.702C14.6118 184.973 13.2078 184.154 11.3488 184.154C9.28184 184.154 7.64384 185.363 7.74784 187.612H9.22984C9.11284 186.039 9.69784 184.908 11.2708 184.908C12.3108 184.908 13.0518 185.597 13.0518 186.715C13.0518 188.288 11.9208 189.523 7.39684 192.539V193.8H14.6378V192.526H8.93084ZM16.0945 189.055C16.0945 192.266 17.7975 193.969 20.0595 193.969C22.3085 193.969 24.0115 192.266 24.0115 189.055C24.0115 185.857 22.3085 184.154 20.0595 184.154C17.7975 184.154 16.0945 185.857 16.0945 189.055ZM17.7455 189.055C17.7455 186.403 18.5645 184.908 20.0595 184.908C21.5415 184.908 22.3735 186.403 22.3735 189.055C22.3735 191.707 21.5415 193.202 20.0595 193.202C18.5645 193.202 17.7455 191.707 17.7455 189.055Z" fill="black" fill-opacity="0.87"/>
<path d="M16.0446 226.255C16.0446 229.466 17.7476 231.169 20.0096 231.169C22.2586 231.169 23.9616 229.466 23.9616 226.255C23.9616 223.057 22.2586 221.354 20.0096 221.354C17.7476 221.354 16.0446 223.057 16.0446 226.255ZM17.6956 226.255C17.6956 223.603 18.5146 222.108 20.0096 222.108C21.4916 222.108 22.3236 223.603 22.3236 226.255C22.3236 228.907 21.4916 230.402 20.0096 230.402C18.5146 230.402 17.6956 228.907 17.6956 226.255Z" fill="black" fill-opacity="0.87"/>
<rect width="535" height="50" transform="translate(29 2)" fill="#4BB6DB" fill-opacity="0.3"/>
<path d="M450.784 21.85V22.34L451.54 22.396C451.848 22.424 451.946 22.522 451.946 22.788V31.062C451.946 31.328 451.848 31.426 451.54 31.44L450.784 31.496V32H458.904V28.962H458.372L458.162 30.152C457.98 31.244 457.77 31.272 456.496 31.272H453.416V27.156H457.42V26.372H453.416V22.578H456.37C457.644 22.578 457.882 22.62 458.05 23.684L458.246 24.888H458.778V21.85H450.784ZM461.651 30.6C461.091 31.286 460.895 31.44 460.433 31.482L460.097 31.51V32H463.051V31.51L462.547 31.468C462.071 31.426 462.141 31.23 462.561 30.712L464.031 28.934L465.627 31.034C465.865 31.314 465.823 31.44 465.389 31.482L464.941 31.51V32H468.343V31.51L467.951 31.482C467.629 31.454 467.531 31.342 467.265 31.006L464.899 27.884L466.565 25.868C467.125 25.182 467.321 25.028 467.783 24.986L468.105 24.958V24.468H465.179V24.958L465.683 25C466.131 25.042 466.075 25.238 465.641 25.756L464.409 27.254L463.051 25.434C462.813 25.154 462.855 25.028 463.275 24.986L463.723 24.958V24.468H460.335V24.958L460.727 24.986C461.049 25.014 461.147 25.126 461.413 25.462L463.555 28.29L461.651 30.6ZM468.965 28.262C468.965 30.544 470.407 32.182 472.521 32.182C474.103 32.182 475.545 31.384 475.825 29.648H474.467C474.383 30.866 473.599 31.454 472.577 31.454C471.009 31.454 470.449 29.9 470.449 28.262C470.449 26.624 471.009 25.084 472.577 25.084C473.585 25.084 474.355 25.672 474.453 26.89H475.811C475.517 25.168 474.103 24.342 472.521 24.342C470.407 24.342 468.965 25.966 468.965 28.262ZM480.933 31.454C479.379 31.454 478.707 30.166 478.679 28.318H484.237C484.251 25.518 482.585 24.342 480.835 24.342C478.693 24.342 477.237 26.008 477.237 28.29C477.237 30.488 478.553 32.182 480.849 32.182C482.389 32.182 483.887 31.384 484.181 29.76H482.823C482.697 30.894 481.969 31.454 480.933 31.454ZM480.793 25.042C481.885 25.042 482.781 25.784 482.781 27.562H478.693C478.805 25.882 479.673 25.042 480.793 25.042ZM486.961 29.634H485.617C485.729 31.118 486.849 32.182 488.879 32.182C490.601 32.182 491.973 31.412 491.973 29.844C491.973 28.444 490.727 27.884 489.313 27.604L488.459 27.436C487.563 27.254 486.989 26.862 486.989 26.19C486.989 25.42 487.899 25.084 488.627 25.084C489.635 25.084 490.419 25.602 490.503 26.526H491.833C491.609 25.07 490.293 24.342 488.753 24.342C487.115 24.342 485.827 25.098 485.827 26.442C485.827 27.66 486.807 28.346 488.011 28.598L488.921 28.766C490.013 28.99 490.797 29.354 490.797 30.18C490.797 30.922 490.041 31.454 488.949 31.454C487.787 31.454 487.073 30.768 486.961 29.634ZM494.604 29.634H493.26C493.372 31.118 494.492 32.182 496.522 32.182C498.244 32.182 499.616 31.412 499.616 29.844C499.616 28.444 498.37 27.884 496.956 27.604L496.102 27.436C495.206 27.254 494.632 26.862 494.632 26.19C494.632 25.42 495.542 25.084 496.27 25.084C497.278 25.084 498.062 25.602 498.146 26.526H499.476C499.252 25.07 497.936 24.342 496.396 24.342C494.758 24.342 493.47 25.098 493.47 26.442C493.47 27.66 494.45 28.346 495.654 28.598L496.564 28.766C497.656 28.99 498.44 29.354 498.44 30.18C498.44 30.922 497.684 31.454 496.592 31.454C495.43 31.454 494.716 30.768 494.604 29.634ZM516.362 31.062V22.802C516.362 22.564 516.432 22.424 516.754 22.396L517.524 22.34V21.85H514.542L511.28 29.886L508.088 21.85H504.938V22.34L505.694 22.396C506.002 22.424 506.128 22.536 506.128 22.802V30.838C506.128 31.314 506.058 31.44 505.554 31.468L504.966 31.496V32H508.172V31.496L507.584 31.468C507.08 31.44 506.996 31.314 506.996 30.838V23.138L510.608 32H511.294L514.892 23.11V31.062C514.892 31.328 514.794 31.426 514.472 31.44L513.73 31.496V32H517.524V31.496L516.768 31.44C516.446 31.426 516.362 31.328 516.362 31.062ZM524.073 30.642H524.101L524.171 32.056L526.313 31.93V31.44L525.725 31.37C525.403 31.342 525.333 31.3 525.319 31.006C525.291 30.306 525.291 29.774 525.291 29.06C525.291 28.332 525.305 27.716 525.319 27.212C525.375 25 524.241 24.342 522.393 24.342C520.671 24.342 519.439 25.35 519.341 26.82H520.671C520.755 25.798 521.147 25.028 522.351 25.028C523.415 25.028 523.947 25.574 523.947 26.876V27.534C521.217 27.87 519.117 28.36 519.117 30.138C519.117 31.384 520.153 32.182 521.483 32.182C522.897 32.182 523.597 31.552 524.073 30.642ZM524.003 28.682C524.003 30.726 523.107 31.356 521.973 31.356C521.105 31.356 520.601 30.838 520.601 30.096C520.601 28.64 522.127 28.458 524.003 28.234V28.682ZM529.85 24.468H527.498V24.944L528.1 25.014C528.436 25.07 528.506 25.14 528.506 25.42V31.076C528.506 31.37 528.422 31.426 528.1 31.454L527.498 31.51V32H531.474V31.496L530.298 31.44C529.976 31.426 529.878 31.356 529.878 31.062V27.702C529.878 26.176 530.494 25.686 531.684 25.686H532.874V24.398H532.16C531.068 24.398 530.256 25.07 529.892 26.036H529.864L529.85 24.468ZM541.081 25.266V24.468L538.127 24.594C537.707 24.426 537.245 24.342 536.769 24.342C535.187 24.342 533.773 25.182 533.773 26.96C533.773 28.164 534.501 28.962 535.481 29.312C534.627 29.48 533.997 29.858 533.997 30.46C533.997 30.95 534.277 31.44 535.215 31.664C534.291 31.804 533.451 32.266 533.451 32.994C533.451 33.988 534.627 34.758 536.783 34.758C539.443 34.758 540.717 33.526 540.717 32.364C540.717 31.496 540.157 30.866 538.211 30.74L536.335 30.628C535.509 30.572 535.215 30.418 535.215 30.026C535.215 29.704 535.551 29.55 535.915 29.438C536.167 29.494 536.447 29.522 536.727 29.522C538.477 29.522 539.653 28.458 539.653 26.89C539.653 26.176 539.415 25.616 539.037 25.196L541.081 25.266ZM536.769 28.864C535.887 28.864 535.145 28.248 535.145 26.96C535.145 25.602 535.775 24.986 536.769 24.986C537.721 24.986 538.309 25.658 538.309 26.918C538.309 28.192 537.707 28.864 536.769 28.864ZM535.999 31.776L537.903 31.874C539.093 31.958 539.471 32.182 539.471 32.77C539.471 33.554 538.379 34.03 536.895 34.03C535.341 34.03 534.613 33.568 534.613 32.812C534.613 32.308 535.061 31.93 535.621 31.748C535.733 31.762 535.859 31.776 535.999 31.776ZM544.384 24.468H541.99V24.944L542.592 25.014C542.928 25.07 542.998 25.14 542.998 25.42V31.076C542.998 31.37 542.914 31.426 542.592 31.454L541.99 31.51V32H545.364V31.51L544.79 31.454C544.468 31.426 544.37 31.37 544.37 31.076V26.036L544.384 24.468ZM542.998 23.32H544.37V21.57H542.998V23.32ZM553.707 26.932C553.707 25.686 553.273 24.342 551.509 24.342C550.347 24.342 549.521 24.93 549.073 25.798H549.059V24.468H546.693V24.944L547.295 25.014C547.631 25.07 547.701 25.14 547.701 25.42V31.076C547.701 31.37 547.617 31.426 547.295 31.454L546.693 31.51V32H550.067V31.51L549.493 31.454C549.171 31.426 549.073 31.37 549.073 31.076V27.562C549.073 25.868 550.081 25.21 550.907 25.21C551.943 25.21 552.335 25.896 552.335 27.324V31.076C552.335 31.37 552.223 31.426 551.915 31.454L551.327 31.51V32H554.715V31.51L554.127 31.454C553.819 31.426 553.707 31.37 553.707 31.076V26.932Z" fill="black" fill-opacity="0.87"/>
<rect width="535" height="83" transform="translate(29 52)" fill="#A4DB4B" fill-opacity="0.4"/>
<path d="M467.893 88.35H466.773L464.463 96.68L462.713 89.526C462.587 89.036 462.615 88.924 463.217 88.896L463.875 88.84V88.35H459.955V88.84L460.347 88.868C460.879 88.896 461.005 89.064 461.131 89.512L463.637 98.5H464.813L467.067 90.562L469.307 98.5H470.497L472.765 90.002C473.031 89.064 473.199 88.896 473.745 88.868L474.151 88.84V88.35H470.833V88.84L471.449 88.882C472.037 88.91 472.065 89.05 471.869 89.834L470.147 96.694L467.893 88.35ZM477.286 90.968H474.892V91.444L475.494 91.514C475.83 91.57 475.9 91.64 475.9 91.92V97.576C475.9 97.87 475.816 97.926 475.494 97.954L474.892 98.01V98.5H478.266V98.01L477.692 97.954C477.37 97.926 477.272 97.87 477.272 97.576V92.536L477.286 90.968ZM475.9 89.82H477.272V88.07H475.9V89.82ZM483.964 90.968H481.724V88.532H480.352V90.968H478.994V91.766H480.352V96.61C480.352 98.192 480.828 98.5 482.48 98.5H483.894V97.632H482.788C481.976 97.632 481.724 97.45 481.724 96.484V91.766H483.964V90.968ZM492.074 93.432C492.074 92.186 491.612 90.842 489.862 90.842C488.714 90.842 487.888 91.43 487.454 92.298H487.426C487.426 92.298 487.44 91.374 487.44 91.192V89.652L487.454 88.07H485.06V88.56L485.634 88.63C485.984 88.658 486.068 88.7 486.068 88.994V97.576C486.068 97.87 485.956 97.926 485.634 97.954L485.06 98.01V98.5H488.448V98.01L487.86 97.954C487.538 97.926 487.44 97.87 487.44 97.576V94.062C487.44 92.368 488.434 91.71 489.26 91.71C490.31 91.71 490.702 92.396 490.702 93.824V97.576C490.702 97.87 490.604 97.926 490.282 97.954L489.708 98.01V98.5H493.068V98.01L492.494 97.954C492.172 97.926 492.074 97.87 492.074 97.576V93.432ZM496.646 90.968H494.252V91.444L494.854 91.514C495.19 91.57 495.26 91.64 495.26 91.92V97.576C495.26 97.87 495.176 97.926 494.854 97.954L494.252 98.01V98.5H497.626V98.01L497.052 97.954C496.73 97.926 496.632 97.87 496.632 97.576V92.536L496.646 90.968ZM495.26 89.82H496.632V88.07H495.26V89.82ZM505.969 93.432C505.969 92.186 505.535 90.842 503.771 90.842C502.609 90.842 501.783 91.43 501.335 92.298H501.321V90.968H498.955V91.444L499.557 91.514C499.893 91.57 499.963 91.64 499.963 91.92V97.576C499.963 97.87 499.879 97.926 499.557 97.954L498.955 98.01V98.5H502.329V98.01L501.755 97.954C501.433 97.926 501.335 97.87 501.335 97.576V94.062C501.335 92.368 502.343 91.71 503.169 91.71C504.205 91.71 504.597 92.396 504.597 93.824V97.576C504.597 97.87 504.485 97.926 504.177 97.954L503.589 98.01V98.5H506.977V98.01L506.389 97.954C506.081 97.926 505.969 97.87 505.969 97.576V93.432ZM512.038 88.84L512.794 88.896C513.102 88.924 513.2 89.022 513.2 89.288V97.562C513.2 97.828 513.102 97.926 512.794 97.94L512.038 97.996V98.5C512.038 98.5 515.818 98.514 516.336 98.514C519.64 98.514 520.508 97.142 520.508 95.616C520.508 94.048 519.332 93.334 517.918 93.082V93.054C519.066 92.774 520.018 92.046 520.018 90.632C520.018 89.12 518.688 88.336 516.238 88.336C515.734 88.336 512.038 88.35 512.038 88.35V88.84ZM514.67 89.078H516.098C517.862 89.078 518.506 89.708 518.506 90.856C518.506 91.948 518.072 92.844 516.098 92.844H514.67V89.078ZM514.67 93.6H516.154C518.086 93.6 518.926 94.174 518.926 95.63C518.926 97.128 518.24 97.772 516.084 97.772H514.67V93.6ZM526.894 98.598L529.218 98.402V97.94L528.644 97.87C528.322 97.842 528.224 97.8 528.224 97.492V92.564L528.238 90.968H525.844V91.444L526.446 91.514C526.782 91.57 526.852 91.64 526.852 91.92V95.476C526.852 97.156 525.914 97.814 525.116 97.814C524.08 97.814 523.744 97.142 523.744 95.7V92.564L523.758 90.968H521.364V91.444L521.966 91.514C522.316 91.57 522.372 91.64 522.372 91.92V96.106C522.372 97.338 522.764 98.682 524.5 98.682C525.662 98.682 526.404 98.108 526.838 97.226H526.866L526.894 98.598ZM534.569 97.996L533.379 97.94C533.057 97.926 532.973 97.856 532.973 97.562V91.766H535.479V90.968H532.973V89.946C532.973 89.12 533.239 88.966 534.163 88.966H535.479V88.07H534.303C532.357 88.07 531.601 88.434 531.601 90.03V90.968H530.565V91.766H531.601V97.576C531.601 97.87 531.517 97.926 531.195 97.954L530.607 98.01V98.5H534.569V97.996ZM540.448 97.996L539.258 97.94C538.936 97.926 538.852 97.856 538.852 97.562V91.766H541.358V90.968H538.852V89.946C538.852 89.12 539.118 88.966 540.042 88.966H541.358V88.07H540.182C538.236 88.07 537.48 88.434 537.48 90.03V90.968H536.444V91.766H537.48V97.576C537.48 97.87 537.396 97.926 537.074 97.954L536.486 98.01V98.5H540.448V97.996ZM545.728 97.954C544.174 97.954 543.502 96.666 543.474 94.818H549.032C549.046 92.018 547.38 90.842 545.63 90.842C543.488 90.842 542.032 92.508 542.032 94.79C542.032 96.988 543.348 98.682 545.644 98.682C547.184 98.682 548.682 97.884 548.976 96.26H547.618C547.492 97.394 546.764 97.954 545.728 97.954ZM545.588 91.542C546.68 91.542 547.576 92.284 547.576 94.062H543.488C543.6 92.382 544.468 91.542 545.588 91.542ZM552.85 90.968H550.498V91.444L551.1 91.514C551.436 91.57 551.506 91.64 551.506 91.92V97.576C551.506 97.87 551.422 97.926 551.1 97.954L550.498 98.01V98.5H554.474V97.996L553.298 97.94C552.976 97.926 552.878 97.856 552.878 97.562V94.202C552.878 92.676 553.494 92.186 554.684 92.186H555.874V90.898H555.16C554.068 90.898 553.256 91.57 552.892 92.536H552.864L552.85 90.968Z" fill="black" fill-opacity="0.87"/>
<mask id="path-7-inside-1_9816_65585" fill="white">
<path d="M29 135H564V185H29V135Z"/>
</mask>
<path d="M29 135H564V185H29V135Z" fill="#DCBF4B" fill-opacity="0.4"/>
<path d="M440.754 159.918C440.754 163.474 438.78 164.272 436.4 164.272H435.462V155.578H436.4C438.78 155.578 440.754 156.376 440.754 159.918ZM442.336 159.918C442.336 156.124 439.774 154.836 436.372 154.836C435.952 154.836 432.83 154.85 432.83 154.85V155.34L433.586 155.396C433.894 155.424 433.992 155.522 433.992 155.788V164.062C433.992 164.328 433.894 164.426 433.586 164.44L432.83 164.496V165C432.83 165 435.966 165.014 436.372 165.014C439.774 165.014 442.336 163.726 442.336 159.918ZM447.502 164.454C445.948 164.454 445.276 163.166 445.248 161.318H450.806C450.82 158.518 449.154 157.342 447.404 157.342C445.262 157.342 443.806 159.008 443.806 161.29C443.806 163.488 445.122 165.182 447.418 165.182C448.958 165.182 450.456 164.384 450.75 162.76H449.392C449.266 163.894 448.538 164.454 447.502 164.454ZM447.362 158.042C448.454 158.042 449.35 158.784 449.35 160.562H445.262C445.374 158.882 446.242 158.042 447.362 158.042ZM454.204 161.262C454.204 158.924 455.324 158.168 456.276 158.168C457.452 158.168 458.292 159.33 458.292 161.262C458.292 163.194 457.438 164.356 456.22 164.356C455.184 164.356 454.204 163.628 454.204 161.262ZM454.274 157.468H451.922V157.944L452.524 158.014C452.86 158.07 452.93 158.14 452.93 158.42V166.722C452.93 167.016 452.846 167.058 452.524 167.1L451.922 167.156V167.646H455.646V167.156L454.736 167.1C454.414 167.072 454.302 167.016 454.302 166.708V164.846C454.302 164.664 454.288 163.978 454.274 163.824H454.302C454.68 164.524 455.408 165.182 456.472 165.182C458.292 165.182 459.762 163.628 459.762 161.262C459.762 158.924 458.46 157.342 456.71 157.342C455.52 157.342 454.736 158.028 454.288 158.854H454.26L454.274 157.468ZM462.749 161.262C462.749 159.05 463.659 158.056 464.863 158.056C466.067 158.056 466.977 159.05 466.977 161.262C466.977 163.474 466.067 164.468 464.863 164.468C463.659 164.468 462.749 163.474 462.749 161.262ZM468.447 161.262C468.447 158.896 466.921 157.342 464.863 157.342C462.805 157.342 461.279 158.896 461.279 161.262C461.279 163.628 462.805 165.182 464.863 165.182C466.921 165.182 468.447 163.628 468.447 161.262ZM471.236 162.634H469.892C470.004 164.118 471.124 165.182 473.154 165.182C474.876 165.182 476.248 164.412 476.248 162.844C476.248 161.444 475.002 160.884 473.588 160.604L472.734 160.436C471.838 160.254 471.264 159.862 471.264 159.19C471.264 158.42 472.174 158.084 472.902 158.084C473.91 158.084 474.694 158.602 474.778 159.526H476.108C475.884 158.07 474.568 157.342 473.028 157.342C471.39 157.342 470.102 158.098 470.102 159.442C470.102 160.66 471.082 161.346 472.286 161.598L473.196 161.766C474.288 161.99 475.072 162.354 475.072 163.18C475.072 163.922 474.316 164.454 473.224 164.454C472.062 164.454 471.348 163.768 471.236 162.634ZM480.082 157.468H477.688V157.944L478.29 158.014C478.626 158.07 478.696 158.14 478.696 158.42V164.076C478.696 164.37 478.612 164.426 478.29 164.454L477.688 164.51V165H481.062V164.51L480.488 164.454C480.166 164.426 480.068 164.37 480.068 164.076V159.036L480.082 157.468ZM478.696 156.32H480.068V154.57H478.696V156.32ZM486.759 157.468H484.519V155.032H483.147V157.468H481.789V158.266H483.147V163.11C483.147 164.692 483.623 165 485.275 165H486.689V164.132H485.583C484.771 164.132 484.519 163.95 484.519 162.984V158.266H486.759V157.468ZM491.92 155.34L492.676 155.396C492.984 155.424 493.082 155.522 493.082 155.788V164.062C493.082 164.328 492.984 164.426 492.676 164.44L491.92 164.496V165H495.854V164.496L494.958 164.44C494.636 164.398 494.552 164.314 494.552 164.048V160.506H495.56C495.826 160.506 496.092 160.506 496.344 160.478L498.248 163.74L498.948 165H501.328V164.496L500.852 164.468C500.39 164.454 500.236 164.272 499.942 163.782L497.814 160.212C499.172 159.792 499.928 158.924 499.928 157.622C499.928 155.634 498.36 154.836 495.56 154.836C494.65 154.836 492.41 154.85 491.92 154.85V155.34ZM495.728 155.564C497.422 155.564 498.374 156.18 498.374 157.65C498.374 159.134 497.422 159.778 495.728 159.778H494.552V155.564H495.728ZM505.649 164.454C504.095 164.454 503.423 163.166 503.395 161.318H508.953C508.967 158.518 507.301 157.342 505.551 157.342C503.409 157.342 501.953 159.008 501.953 161.29C501.953 163.488 503.269 165.182 505.565 165.182C507.105 165.182 508.603 164.384 508.897 162.76H507.539C507.413 163.894 506.685 164.454 505.649 164.454ZM505.509 158.042C506.601 158.042 507.497 158.784 507.497 160.562H503.409C503.521 158.882 504.389 158.042 505.509 158.042ZM516.07 161.262C516.07 163.6 514.922 164.356 513.97 164.356C512.794 164.356 511.968 163.194 511.968 161.262C511.968 159.33 512.822 158.168 514.04 158.168C515.09 158.168 516.07 158.91 516.07 161.262ZM515.944 166.708C515.944 167.016 515.846 167.072 515.524 167.1L514.614 167.156V167.646H518.31V167.156L517.736 167.1C517.414 167.058 517.316 167.016 517.316 166.722V160.016L517.358 157.468H516.49L516.14 158.588H516.112C515.664 157.902 514.838 157.342 513.788 157.342C511.954 157.342 510.498 158.882 510.498 161.262C510.498 163.6 511.786 165.182 513.536 165.182C514.754 165.182 515.51 164.51 515.958 163.684H515.972C515.958 164.048 515.944 164.384 515.944 164.846V166.708ZM524.494 165.098L526.818 164.902V164.44L526.244 164.37C525.922 164.342 525.824 164.3 525.824 163.992V159.064L525.838 157.468H523.444V157.944L524.046 158.014C524.382 158.07 524.452 158.14 524.452 158.42V161.976C524.452 163.656 523.514 164.314 522.716 164.314C521.68 164.314 521.344 163.642 521.344 162.2V159.064L521.358 157.468H518.964V157.944L519.566 158.014C519.916 158.07 519.972 158.14 519.972 158.42V162.606C519.972 163.838 520.364 165.182 522.1 165.182C523.262 165.182 524.004 164.608 524.438 163.726H524.466L524.494 165.098ZM530.545 157.468H528.151V157.944L528.753 158.014C529.089 158.07 529.159 158.14 529.159 158.42V164.076C529.159 164.37 529.075 164.426 528.753 164.454L528.151 164.51V165H531.525V164.51L530.951 164.454C530.629 164.426 530.531 164.37 530.531 164.076V159.036L530.545 157.468ZM529.159 156.32H530.531V154.57H529.159V156.32ZM535.206 157.468H532.854V157.944L533.456 158.014C533.792 158.07 533.862 158.14 533.862 158.42V164.076C533.862 164.37 533.778 164.426 533.456 164.454L532.854 164.51V165H536.83V164.496L535.654 164.44C535.332 164.426 535.234 164.356 535.234 164.062V160.702C535.234 159.176 535.85 158.686 537.04 158.686H538.23V157.398H537.516C536.424 157.398 535.612 158.07 535.248 159.036H535.22L535.206 157.468ZM542.699 164.454C541.145 164.454 540.473 163.166 540.445 161.318H546.003C546.017 158.518 544.351 157.342 542.601 157.342C540.459 157.342 539.003 159.008 539.003 161.29C539.003 163.488 540.319 165.182 542.615 165.182C544.155 165.182 545.653 164.384 545.947 162.76H544.589C544.463 163.894 543.735 164.454 542.699 164.454ZM542.559 158.042C543.651 158.042 544.547 158.784 544.547 160.562H540.459C540.571 158.882 541.439 158.042 542.559 158.042ZM553.121 161.262C553.121 163.6 551.973 164.356 551.021 164.356C549.845 164.356 549.019 163.194 549.019 161.262C549.019 159.33 549.873 158.168 551.091 158.168C552.141 158.168 553.121 158.91 553.121 161.262ZM551.833 154.57V155.06L552.575 155.13C552.897 155.158 552.995 155.2 552.995 155.508V157.496C552.995 157.762 553.009 158.014 553.023 158.7H552.995C552.631 158 551.889 157.342 550.839 157.342C549.005 157.342 547.535 158.882 547.535 161.276C547.535 163.614 548.837 165.182 550.601 165.182C551.805 165.182 552.575 164.496 553.023 163.67H553.051L553.093 165.056L555.361 164.902V164.44L554.787 164.37C554.465 164.342 554.367 164.3 554.367 163.992V156.166L554.381 154.57H551.833Z" fill="black" fill-opacity="0.87"/>
<path d="M29 138H564V132H29V138Z" fill="#C0A742" mask="url(#path-7-inside-1_9816_65585)"/>
<mask id="path-10-inside-2_9816_65585" fill="white">
<path d="M29 185H564V235H29V185Z"/>
</mask>
<path d="M29 185H564V235H29V185Z" fill="#DC4B63" fill-opacity="0.4"/>
<path d="M474.784 215H482.652V211.962H482.134L481.938 213.152C481.756 214.244 481.56 214.272 480.272 214.272H477.416V205.788C477.416 205.522 477.5 205.424 477.822 205.396L478.648 205.34V204.85H474.784V205.34L475.54 205.396C475.848 205.424 475.946 205.522 475.946 205.788V214.062C475.946 214.328 475.848 214.426 475.54 214.44L474.784 214.496V215ZM486.161 207.468H483.767V207.944L484.369 208.014C484.705 208.07 484.775 208.14 484.775 208.42V214.076C484.775 214.37 484.691 214.426 484.369 214.454L483.767 214.51V215H487.141V214.51L486.567 214.454C486.245 214.426 486.147 214.37 486.147 214.076V209.036L486.161 207.468ZM484.775 206.32H486.147V204.57H484.775V206.32ZM493.917 211.262C493.917 213.6 492.769 214.356 491.817 214.356C490.641 214.356 489.815 213.194 489.815 211.262C489.815 209.33 490.669 208.168 491.887 208.168C492.937 208.168 493.917 208.91 493.917 211.262ZM493.791 216.708C493.791 217.016 493.693 217.072 493.371 217.1L492.461 217.156V217.646H496.157V217.156L495.583 217.1C495.261 217.058 495.163 217.016 495.163 216.722V210.016L495.205 207.468H494.337L493.987 208.588H493.959C493.511 207.902 492.685 207.342 491.635 207.342C489.801 207.342 488.345 208.882 488.345 211.262C488.345 213.6 489.633 215.182 491.383 215.182C492.601 215.182 493.357 214.51 493.805 213.684H493.819C493.805 214.048 493.791 214.384 493.791 214.846V216.708ZM502.341 215.098L504.665 214.902V214.44L504.091 214.37C503.769 214.342 503.671 214.3 503.671 213.992V209.064L503.685 207.468H501.291V207.944L501.893 208.014C502.229 208.07 502.299 208.14 502.299 208.42V211.976C502.299 213.656 501.361 214.314 500.563 214.314C499.527 214.314 499.191 213.642 499.191 212.2V209.064L499.205 207.468H496.811V207.944L497.413 208.014C497.763 208.07 497.819 208.14 497.819 208.42V212.606C497.819 213.838 498.211 215.182 499.947 215.182C501.109 215.182 501.851 214.608 502.285 213.726H502.313L502.341 215.098ZM508.392 207.468H505.998V207.944L506.6 208.014C506.936 208.07 507.006 208.14 507.006 208.42V214.076C507.006 214.37 506.922 214.426 506.6 214.454L505.998 214.51V215H509.372V214.51L508.798 214.454C508.476 214.426 508.378 214.37 508.378 214.076V209.036L508.392 207.468ZM507.006 206.32H508.378V204.57H507.006V206.32ZM516.147 211.262C516.147 213.6 514.999 214.356 514.047 214.356C512.871 214.356 512.045 213.194 512.045 211.262C512.045 209.33 512.899 208.168 514.117 208.168C515.167 208.168 516.147 208.91 516.147 211.262ZM514.859 204.57V205.06L515.601 205.13C515.923 205.158 516.021 205.2 516.021 205.508V207.496C516.021 207.762 516.035 208.014 516.049 208.7H516.021C515.657 208 514.915 207.342 513.865 207.342C512.031 207.342 510.561 208.882 510.561 211.276C510.561 213.614 511.863 215.182 513.627 215.182C514.831 215.182 515.601 214.496 516.049 213.67H516.077L516.119 215.056L518.387 214.902V214.44L517.813 214.37C517.491 214.342 517.393 214.3 517.393 213.992V206.166L517.407 204.57H514.859ZM524.748 213.642H524.776L524.846 215.056L526.988 214.93V214.44L526.4 214.37C526.078 214.342 526.008 214.3 525.994 214.006C525.966 213.306 525.966 212.774 525.966 212.06C525.966 211.332 525.98 210.716 525.994 210.212C526.05 208 524.916 207.342 523.068 207.342C521.346 207.342 520.114 208.35 520.016 209.82H521.346C521.43 208.798 521.822 208.028 523.026 208.028C524.09 208.028 524.622 208.574 524.622 209.876V210.534C521.892 210.87 519.792 211.36 519.792 213.138C519.792 214.384 520.828 215.182 522.158 215.182C523.572 215.182 524.272 214.552 524.748 213.642ZM524.678 211.682C524.678 213.726 523.782 214.356 522.648 214.356C521.78 214.356 521.276 213.838 521.276 213.096C521.276 211.64 522.802 211.458 524.678 211.234V211.682ZM532.542 207.468H530.302V205.032H528.93V207.468H527.572V208.266H528.93V213.11C528.93 214.692 529.406 215 531.058 215H532.472V214.132H531.366C530.554 214.132 530.302 213.95 530.302 212.984V208.266H532.542V207.468ZM536.214 207.468H533.82V207.944L534.422 208.014C534.758 208.07 534.828 208.14 534.828 208.42V214.076C534.828 214.37 534.744 214.426 534.422 214.454L533.82 214.51V215H537.194V214.51L536.62 214.454C536.298 214.426 536.2 214.37 536.2 214.076V209.036L536.214 207.468ZM534.828 206.32H536.2V204.57H534.828V206.32ZM539.867 211.262C539.867 209.05 540.777 208.056 541.981 208.056C543.185 208.056 544.095 209.05 544.095 211.262C544.095 213.474 543.185 214.468 541.981 214.468C540.777 214.468 539.867 213.474 539.867 211.262ZM545.565 211.262C545.565 208.896 544.039 207.342 541.981 207.342C539.923 207.342 538.397 208.896 538.397 211.262C538.397 213.628 539.923 215.182 541.981 215.182C544.039 215.182 545.565 213.628 545.565 211.262ZM554.11 209.932C554.11 208.686 553.676 207.342 551.912 207.342C550.75 207.342 549.924 207.93 549.476 208.798H549.462V207.468H547.096V207.944L547.698 208.014C548.034 208.07 548.104 208.14 548.104 208.42V214.076C548.104 214.37 548.02 214.426 547.698 214.454L547.096 214.51V215H550.47V214.51L549.896 214.454C549.574 214.426 549.476 214.37 549.476 214.076V210.562C549.476 208.868 550.484 208.21 551.31 208.21C552.346 208.21 552.738 208.896 552.738 210.324V214.076C552.738 214.37 552.626 214.426 552.318 214.454L551.73 214.51V215H555.118V214.51L554.53 214.454C554.222 214.426 554.11 214.37 554.11 214.076V209.932Z" fill="black" fill-opacity="0.87"/>
<path d="M29 188H564V182H29V188Z" fill="#C04257" mask="url(#path-10-inside-2_9816_65585)"/>
<path d="M30 85H51.6258H73.2516V158.875L97.8264 158.893V168.892L171.551 168.928L269.85 169V110.378H292.459L314.084 110.378H425" stroke="#494849" stroke-width="2"/>
<path d="M30 2H51.6258H73.2516V93.8419L269.85 94V29.7948H292.459L314.084 29.7948H425" stroke="#424EC0" stroke-width="1.5" stroke-dasharray="4 4"/>
</svg>
