<svg id="pangea-icon" data-name="pangea-icon" xmlns="http://www.w3.org/2000/svg" viewBox="0 0 61.89 61.89"><path class="outer-ring" d="M61.06,36.66,61,36c0-.39,0-.8,0-1.23v-.07c0-.24,0-.48,0-.84L61,33c0-.16,0-.33,0-.5,0-.46,0-.95,0-1.51v-.14c0-.36,0-.7,0-1s0-.66,0-1v-.08c0-.1,0-.2,0-.3a5.27,5.27,0,0,0,0-.57v-.36c0-.12,0-.26,0-.38,0-.47,0-.9,0-1.31l0-.33,0-.37v-.68c0-.24,0-.49,0-.75s0-.4,0-.62V22.8c0-.19,0-.42,0-.65a5,5,0,0,0-.12-.73l-.06-.26c0-.14-.07-.29-.1-.43s-.06-.25-.09-.39l-.15-.54c0-.12-.07-.24-.11-.37a11.74,11.74,0,0,0-.86-2.07c-.18-.39-.37-.76-.53-1.06a4,4,0,0,0-.26-.46l0,0c-.08-.13-.16-.24-.23-.34l-.11-.15-.06-.09c-.38-.54-.75-1-1.17-1.53l-.2-.21a17.55,17.55,0,0,0-1.59-1.44l-.54-.43-.16-.12h0l0,0c-1.25-.91-2.54-1.85-4.84-3.75l-.48-.37-.76-.61-.38-.32-.23-.18-.25-.18L47.6,6c-.26-.2-.51-.39-.76-.61l-.21-.18-.33-.29c-.17-.15-.33-.31-.53-.47s-.64-.52-1-.79h0c-.33-.28-.67-.56-1.06-.86l-.34-.23-.26-.17-.31-.18-.3-.17L42.34,2l-.15-.08L42,1.76l-.17-.09-.25-.12-.26-.12-.22-.11-.2-.08-.33-.15c-.48-.15-1-.31-1.55-.46l-.7-.19L37.94.36,37.59.27h0L37,.19c-.38,0-.75-.09-1.09-.11l-.32,0-.61,0h0a7.36,7.36,0,0,0-1,0L33.2.11h-.12l-.23,0C32.2.25,31.61.37,31,.49l-.23.06-.61.18c-.55.16-1.1.32-1.7.44a4.52,4.52,0,0,0-.47.11,3.37,3.37,0,0,0-.34.09l-.1,0c-.25.07-.52.14-.81.2s-.58.13-.91.19l-1.18.27c-.69.18-1.33.32-2,.43h0l-.09,0h-.05l-.78.2c-.25.06-.5.12-.74.16L20.36,3l-.61.11-.1,0-1.23.26-1.11.24-.24.06A8.73,8.73,0,0,0,16,4.08l-.33.13-.1,0-.12,0c-.24.1-.5.21-.78.35s-.56.28-.88.47-.44.29-.66.44l-.28.18-1,.75q-.54.45-1,.87a14.34,14.34,0,0,0-3.51,4.94L7,13.09a.3.3,0,0,0,0,.08l-.4.89-.31.68c-.2.47-.41.94-.68,1.46l-.12.23,0,0a5.8,5.8,0,0,0-.33.66c-.13.3-.28.63-.42.92C4.26,18.75,4,19.39,3.7,20c-.15.33-.29.62-.42.89s-.18.36-.27.52a5.27,5.27,0,0,0-.35.66l-.11.22a3,3,0,0,1-.18.36l0,.08,0,0-.46.88h0l-.1.19-.62,1.33c-.07.17-.13.35-.2.53l-.06.16c-.08.25-.17.5-.25.77,0,.1-.06.22-.1.33a1.33,1.33,0,0,1,0,.19c0,.12-.07.25-.1.38s-.1.54-.14.83h0l0,.22c-.09.71-.15,1.49-.19,2.3V31H0V31c.05.83.11,1.59.2,2.33l0,.21c0,.29.08.57.15.88s.16.59.24.86.19.58.29.86.15.42.23.62h0l.24.58,1,1.86.21.42a8.74,8.74,0,0,0,.44.86c.1.17.19.36.29.56s.27.55.41.86c.26.58.56,1.21.91,1.87h0c.16.34.31.66.43.93l0,0c.1.23.21.45.32.66s.1.17.16.3c.25.48.47.95.68,1.47l.26.55c.3.66.56,1.23.84,1.92a14.84,14.84,0,0,0,4.53,5.77c.31.23.62.46.93.67l.05,0,1,.66a16.49,16.49,0,0,0,1.62.78l.27.11a10.79,10.79,0,0,0,1.24.45,1.27,1.27,0,0,0,.18.06l1.32.29.39.08.25,0,.6.13a6.86,6.86,0,0,0,.68.12c.22,0,.45.07.73.13l.62.14.5.13.21.05.31.07c.31.06.63.12.95.2l1,.23,1.2.27.85.18h.07l.07,0,.71.18.31.08a3.52,3.52,0,0,0,.57.13c.42.09.81.19,1.18.29l.12,0,1,.29.31.09c.64.13,1.35.27,2.18.37l.63.08q.31,0,.63,0h0c.33,0,.65,0,1,0l.42,0H36l1-.11.14,0,.17,0c.11,0,.24,0,.4-.07l.19,0,.42-.11c.8-.2,1.55-.42,2.23-.65l.1,0c.33-.14.63-.28.92-.43s.56-.28.81-.42l.2-.11.12-.07a6.62,6.62,0,0,0,.61-.37c.16-.1.32-.2.48-.32.37-.28.7-.56,1-.84l.08-.07.13-.11.34-.28.19-.16.25-.2.46-.41.28-.25.32-.28.74-.59c.17-.13.35-.26.58-.45.48-.41,1-.82,1.62-1.29,2.22-1.84,3.5-2.78,4.74-3.69l.36-.27c.34-.27.67-.54,1-.86l.31-.28.22-.19.2-.19L57,48.3l.15-.17h0c.39-.47.76-1,1.1-1.44a4.79,4.79,0,0,0,.34-.53,5.29,5.29,0,0,0,.32-.5c.1-.18.19-.38.29-.56s.2-.38.3-.59.31-.65.44-1l.1-.21a.49.49,0,0,1,0-.11,7.18,7.18,0,0,0,.33-1c.18-.64.33-1.23.46-1.82h0l.07-.74.09-.92v-.06c0-.43,0-.83,0-1.27v-.69h0Zm-2.83.76c0,.1,0,.2,0,.29,0,.3,0,.6,0,.9h0l-.11,1.22-.18.79a.19.19,0,0,0,0,.07l-.22.8a6.36,6.36,0,0,1-.35,1c-.11.26-.24.53-.38.82s-.22.45-.33.66-.09.19-.14.27-.15.24-.22.36-.18.31-.28.44l-.41.56c-.2.26-.4.52-.62.78h0a2.73,2.73,0,0,1-.34.34h0l0,0-.46.41-.9.75-.31.23-.9.66a11.76,11.76,0,0,0,.28-2.37A17.58,17.58,0,0,1,52.39,44a5.51,5.51,0,0,1,.21-1.06l.17-.43c.12-.33.25-.69.42-1.06a9.54,9.54,0,0,1,3.07-3.62l.91-.75c.18-.17.36-.36.53-.55s.32-.37.47-.56c0,.1,0,.21,0,.31l0,.6ZM42.07,56.8a5.67,5.67,0,0,1-.57.36l-.3.17-.18.1-.48.25c-.28.15-.59.29-.93.44-.6.2-1.27.39-2,.58l-.4.1-.11,0-.11,0-.2,0-.17,0-.18,0-.77.08-.41,0-.46,0a4.83,4.83,0,0,1-.66,0L33.69,59c-.77-.09-1.43-.22-2-.34l-.17,0c-.43-.13-.87-.26-1.36-.39a13,13,0,0,0,2.09-1.26l.3-.24a11.05,11.05,0,0,1,1.6-1.16l.42-.23a5.33,5.33,0,0,1,.76-.37,4.76,4.76,0,0,1,.57-.19l.53-.13a3.44,3.44,0,0,1,.38-.11,6.13,6.13,0,0,1,1.47-.21,6,6,0,0,1,1.19,0,7.56,7.56,0,0,1,.83.14l.38.07.89.17.34.07c.47.09,1,.18,1.48.24a6.32,6.32,0,0,0,.88,0l-.22.19-.84.69L43,56l-.62.5Zm-25.3-1.71L16.56,55c-.43-.19-.88-.38-1.27-.6s-.69-.47-1-.72l-.64-.46a12.5,12.5,0,0,1-2.95-3.29,14.55,14.55,0,0,1-.73-1.39c-.21-.51-.43-1-.68-1.54a12.07,12.07,0,0,0,2.11.76l.67.17a8.8,8.8,0,0,1,4.25,1.93,6.26,6.26,0,0,1,1.06,1,6.11,6.11,0,0,1,.76.94,8.45,8.45,0,0,1,.46.82l.14.26.42.81.15.3A14,14,0,0,0,20,55.28a5.21,5.21,0,0,0,.59.77l-.3,0-1.16-.25-.11,0c-.4-.08-.8-.16-1.19-.26A9.28,9.28,0,0,1,16.77,55.09ZM4.24,36.75l0-.08-.44-.93-.15-.41c-.09-.27-.19-.55-.29-.86l-.2-.7A4.89,4.89,0,0,1,3,33.2L3,33c0-.32-.07-.65-.1-1V32c0-.32-.05-.65-.07-1L3,28.88l0-.19c0-.19,0-.38.07-.52s.14-.5.21-.74.2-.6.3-.87.09-.26.14-.38L4.83,24h0l.1-.2a.47.47,0,0,1,.05-.1q.09.36.18.66l0,.12c.16.48.34.92.53,1.36l.57,1.24a8.39,8.39,0,0,1,.42,1,5,5,0,0,1,.14.58l.06.24a4,4,0,0,1,.09.43,6.2,6.2,0,0,1,.08,1.39V31A6.49,6.49,0,0,1,7,32.36c0,.14-.06.28-.09.41l-.07.28a4.56,4.56,0,0,1-.13.53,8.43,8.43,0,0,1-.41,1l-.58,1.26a12.82,12.82,0,0,0-.53,1.36l0,.11c-.07.23-.15.49-.21.76a1.51,1.51,0,0,0-.11-.22L4.37,37Zm11-29.21a6.89,6.89,0,0,1,.66-.34l.21-.1.44-.19.19-.08.52-.21a4.76,4.76,0,0,1,.53-.18c.42-.11.82-.19,1.23-.27l1.25-.27.13,0,.08,0a5.59,5.59,0,0,0-.46.6c-.27.44-.5.87-.72,1.29l-.16.31c-.14.27-.27.54-.43.82l-.14.27a8.6,8.6,0,0,1-.46.81,6.59,6.59,0,0,1-.79,1,6.22,6.22,0,0,1-1.08,1A8.73,8.73,0,0,1,12,13.81l-.67.17a11.89,11.89,0,0,0-2,.73c.14-.31.26-.6.38-.88s.12-.26.17-.39a11.87,11.87,0,0,1,3.65-4.71l.36-.27C14.37,8.11,14.83,7.79,15.22,7.54ZM31.61,3.26h0c.57-.12,1.14-.23,1.81-.32h0l.2,0,.51-.06h.58c.27,0,.56,0,.87,0s.61.06.94.1h.07l.11,0,.32,0,.52.13.54.14,1.13.33.28.09.1,0c.23.09.44.19.65.29l.58.3a.31.31,0,0,0,.1.05l.18.1.48.28.07,0,.32.21.74.61.26.21.06,0c.3.26.6.51.89.74l.1.09c-.24,0-.48,0-.72,0-.51.06-1,.14-1.46.24l-.33.07-.9.17-.42.08c-.25,0-.52.1-.81.13a5.61,5.61,0,0,1-1.15,0h-.1a6.25,6.25,0,0,1-1.39-.21l-.46-.13-.4-.1a5.45,5.45,0,0,1-.65-.21,6.38,6.38,0,0,1-.74-.37l-.36-.2A11.57,11.57,0,0,1,32.54,5l-.36-.29a13.19,13.19,0,0,0-1.83-1.12l.41-.11Zm21.91,11,.56.47.18.15a7.8,7.8,0,0,1,.71.7c.22.26.43.56.65.84s.22.28.32.43.13.18.19.28a2.74,2.74,0,0,1,.3.47c.17.31.34.65.53,1.06A11.49,11.49,0,0,1,58,21.79l.07.3a2.28,2.28,0,0,1,.06.39c0,.1,0,.2,0,.31a.62.62,0,0,0,0,.13v.31c0,.23,0,.43,0,.64s0,.41,0,.61v.57l0,.3,0,.3a1.27,1.27,0,0,0,0,.2l-.46-.56c-.17-.18-.34-.36-.52-.53l-.63-.54a18.55,18.55,0,0,1-1.89-1.66,8.27,8.27,0,0,1-1.47-2.2,8.21,8.21,0,0,1-.8-2.58,17.37,17.37,0,0,1-.12-2.5A11,11,0,0,0,52,13.13l.91.66ZM28.43,55.85a4.63,4.63,0,0,1-1.16.18,6.48,6.48,0,0,1-.86,0h-.26l-.48-.12a8.68,8.68,0,0,1-1.55-.53,6.14,6.14,0,0,1-1-.77,4.56,4.56,0,0,1-.71-.82c-.22-.35-.41-.71-.59-1.06l-.15-.29c-.16-.31-.31-.61-.46-.87l-.1-.21c-.12-.22-.25-.46-.39-.7a7.19,7.19,0,0,0,1.3,0c.42,0,.81-.12,1.2-.2l.26-.05.76-.15.25,0a6.64,6.64,0,0,1,.71-.11,4.37,4.37,0,0,1,.88,0h.1a3.86,3.86,0,0,1,1.07.16l.27.07.41.1c.17,0,.33.1.51.17a4.53,4.53,0,0,1,.54.27l.31.17a9.46,9.46,0,0,1,1.29.93l.31.25a9.87,9.87,0,0,0,1.64,1,15,15,0,0,0-1.76,1.27l-.21.18A8.47,8.47,0,0,1,28.43,55.85Zm11.32-8.54-.07.14-.39.74-.11.22c-.14.28-.3.57-.47.84a3.13,3.13,0,0,1-.52.61,4.44,4.44,0,0,1-.71.55,7.26,7.26,0,0,1-1.33.47,3.89,3.89,0,0,1-1.09.09H35a3.27,3.27,0,0,1-.9-.14A6,6,0,0,1,32.57,50l-.24-.19a10.64,10.64,0,0,0-1.74-1.23l-.26-.14a7,7,0,0,0-.91-.45c-.25-.09-.51-.18-.82-.26l-.3-.07-.38-.11a7.5,7.5,0,0,0-1.65-.25,6.94,6.94,0,0,0-1.37,0c-.33,0-.67.09-1,.15l-.2,0-.83.16-.24,0c-.31.06-.63.12-.94.16a3.78,3.78,0,0,1-.8,0,4.4,4.4,0,0,1-.89-.22,6.79,6.79,0,0,1-1.09-.67,4,4,0,0,1-1.62-3.44,17.1,17.1,0,0,0-.11-2.26,9.23,9.23,0,0,0-.89-2.94,10.15,10.15,0,0,0-3.19-3.81l-.22-.18a4.23,4.23,0,0,1,0-6.81l.24-.2a10.17,10.17,0,0,0,3.21-3.86,9.29,9.29,0,0,0,.86-2.82,15.51,15.51,0,0,0,.11-2.27,4,4,0,0,1,1.57-3.45A6.19,6.19,0,0,1,20,14.19a3.74,3.74,0,0,1,.91-.24,4.1,4.1,0,0,1,.81,0c.33,0,.65.1.95.16l.25,0,.81.16.25.05a7.62,7.62,0,0,0,.94.14,6.45,6.45,0,0,0,1.39,0A7.29,7.29,0,0,0,28,14.2l.48-.13a5.53,5.53,0,0,0,.92-.28,6.29,6.29,0,0,0,1-.47l.27-.15A11.63,11.63,0,0,0,32.33,12l.15-.13a6.61,6.61,0,0,1,1.64-.92,3.6,3.6,0,0,1,.85-.12,4.3,4.3,0,0,1,.62,0l.28,0,.32.07a6.76,6.76,0,0,1,1.19.41,4.13,4.13,0,0,1,1.31,1.19,7.9,7.9,0,0,1,.47.85l.13.25c.13.24.25.48.37.69l.1.2c.15.29.31.59.48.85a7.18,7.18,0,0,0,.85,1.06,7.09,7.09,0,0,0,1.2,1.13,9.77,9.77,0,0,0,4.44,2l.41.1a5.76,5.76,0,0,1,1.55.59A4.25,4.25,0,0,1,50.15,22a4,4,0,0,1,.43,2.1,5.11,5.11,0,0,1-.48,1.58l-.46,1a9.07,9.07,0,0,0-.48,1.2c-.07.23-.13.46-.17.66l0,.16a4.74,4.74,0,0,0-.1.49,7,7,0,0,0-.1,1.65,9.24,9.24,0,0,0,1.12,4.62l.23.52a5.32,5.32,0,0,1,.48,1.54,4,4,0,0,1-.47,2.24,3.91,3.91,0,0,1-1.36,1.64,5.6,5.6,0,0,1-1.62.64l-.4.1a9.59,9.59,0,0,0-4.37,2,7,7,0,0,0-1.22,1.12,7.85,7.85,0,0,0-.87,1.09A9.23,9.23,0,0,0,39.75,47.31Zm5-37.67a4.87,4.87,0,0,1,1.19.31,8.4,8.4,0,0,1,1.42.86,5.3,5.3,0,0,1,2.12,4.51c0,.69,0,1.43.08,2.18a11.68,11.68,0,0,0-1.61-.57l-.54-.13A7,7,0,0,1,44,15.28a4.78,4.78,0,0,1-.84-.79,4.56,4.56,0,0,1-.58-.72,5.11,5.11,0,0,1-.34-.6l-.13-.25-.33-.63L41.69,12c-.19-.35-.38-.71-.61-1.08a6.75,6.75,0,0,0-.62-.77l.33-.06.36-.07c.33-.05.66-.12,1-.19l.32-.06c.39-.08.79-.16,1.18-.2A5.83,5.83,0,0,1,44.72,9.64ZM30.77,9.56l-.23.19a9.11,9.11,0,0,1-1.27.92l-.32.18a4.24,4.24,0,0,1-.64.31,3.88,3.88,0,0,1-.56.17l-.56.15a4.46,4.46,0,0,1-1.05.16H26a4.54,4.54,0,0,1-.9,0,4.64,4.64,0,0,1-.65-.11l-.31-.06-.73-.14-.26-.05c-.39-.08-.78-.15-1.23-.2a6.71,6.71,0,0,0-1.25,0c.13-.23.26-.46.37-.67l.11-.21c.16-.29.31-.59.47-.89l.15-.3A11,11,0,0,1,22.39,8a5,5,0,0,1,.69-.81,6.12,6.12,0,0,1,1-.74,8.27,8.27,0,0,1,1.64-.58l.37-.09.42,0a6.75,6.75,0,0,1,.77,0,4.06,4.06,0,0,1,1.22.19,8.39,8.39,0,0,1,2,1.1l.28.23a17.37,17.37,0,0,0,1.74,1.27A10.91,10.91,0,0,0,30.77,9.56ZM14.46,18.29a14.22,14.22,0,0,1-.1,2,6.52,6.52,0,0,1-.62,1.95,7.37,7.37,0,0,1-2.42,2.83l-.26.22a8,8,0,0,0-1.69,1.87,10.24,10.24,0,0,0-.52-1.29l-.52-1.12C8.18,24.4,8,24,7.9,23.66l0-.09a4.1,4.1,0,0,1-.21-.95,5.36,5.36,0,0,1,.6-2.88,4.84,4.84,0,0,1,.86-1.35,5.72,5.72,0,0,1,1-.86,7.48,7.48,0,0,1,2.06-.83l.53-.13A18.15,18.15,0,0,0,14.78,16,8.82,8.82,0,0,0,14.46,18.29ZM8.23,42a5.36,5.36,0,0,1-.57-2.85,4.51,4.51,0,0,1,.23-1c.13-.4.29-.77.44-1.12l.53-1.15a10.75,10.75,0,0,0,.51-1.26,8.2,8.2,0,0,0,1.71,1.89l.24.2a7.32,7.32,0,0,1,2.4,2.79,6.85,6.85,0,0,1,.65,2.06,14.37,14.37,0,0,1,.09,2,8.21,8.21,0,0,0,.33,2.25,17.05,17.05,0,0,0-2.12-.6L12.13,45a7.63,7.63,0,0,1-2-.81,6.05,6.05,0,0,1-1-.92A4.94,4.94,0,0,1,8.23,42Zm32.88,8.82c.22-.35.41-.71.59-1.06l.12-.23c.11-.23.22-.45.36-.69l.09-.18a6.62,6.62,0,0,1,.38-.67,5.3,5.3,0,0,1,.61-.75,5.1,5.1,0,0,1,.85-.78,6.89,6.89,0,0,1,3.28-1.47L48,44.8a9.86,9.86,0,0,0,1.57-.57,20.23,20.23,0,0,0-.08,2.16,5.26,5.26,0,0,1-2.07,4.52,9.06,9.06,0,0,1-1.42.88,4.92,4.92,0,0,1-1.22.32,5.3,5.3,0,0,1-1.07,0c-.43,0-.83-.12-1.22-.2l-.32-.07-1-.18-.33-.07-.36-.06A5.61,5.61,0,0,0,41.11,50.77ZM53.29,36.59a10.33,10.33,0,0,0-.57-1.66l-.28-.63a6.43,6.43,0,0,1-.85-3.39v-.12a4.8,4.8,0,0,1,.06-1.08c0-.1,0-.19.07-.29l.06-.27a3.69,3.69,0,0,1,.1-.39,6.74,6.74,0,0,1,.32-.81l.53-1.16a9.51,9.51,0,0,0,.55-1.64c.53.49,1,.9,1.5,1.27l.47.39.36.38a6.11,6.11,0,0,1,.71.94,3.73,3.73,0,0,1,.28.51,5.8,5.8,0,0,1,.19.59A9.24,9.24,0,0,1,57,30.88a8.53,8.53,0,0,1-.23,1.64,4,4,0,0,1-.17.56,5.18,5.18,0,0,1-.31.57,5.33,5.33,0,0,1-.7.92,2.81,2.81,0,0,1-.32.34l-.81.67C54.08,35.9,53.68,36.23,53.29,36.59Z"/></svg>