<svg width="24" height="24" viewBox="0 0 24 24" fill="none" xmlns="http://www.w3.org/2000/svg">
<path d="M14.2578 18.4947L15.6167 21.317L16.878 20.7107L15.5191 17.8884C15.1219 18.1323 14.7038 18.3344 14.2578 18.4947Z" fill="#494849"/>
<path d="M11.9089 18.9128C11.672 18.9128 11.442 18.8988 11.2051 18.8779V21.9999H12.6058V18.8779C12.3758 18.8988 12.1459 18.9128 11.9089 18.9128Z" fill="#494849"/>
<path d="M16.8428 16.8363L19.2888 18.7875L20.1598 17.6934L17.7139 15.7422C17.463 16.1324 17.1703 16.5018 16.8428 16.8363Z" fill="#494849"/>
<path d="M18.4531 14.2162L21.5054 14.9131L21.819 13.5472L18.7667 12.8503C18.704 13.3172 18.5995 13.7772 18.4531 14.2162Z" fill="#494849"/>
<path d="M8.29248 17.8816L6.93359 20.7039L8.19492 21.3102L9.55381 18.4879C9.11478 18.3346 8.6897 18.1255 8.29248 17.8816Z" fill="#494849"/>
<path d="M5.05227 12.8433L2 13.5401L2.31359 14.906L5.36585 14.2091C5.21951 13.7701 5.10801 13.3171 5.05227 12.8433Z" fill="#494849"/>
<path d="M6.09736 15.7354L3.65137 17.6866L4.52245 18.7806L6.96844 16.8294C6.64092 16.4949 6.3552 16.1326 6.09736 15.7354Z" fill="#494849"/>
<path d="M6.97528 7.16386L4.52928 5.21265L3.6582 6.31369L6.1042 8.26491C6.35507 7.8677 6.64775 7.49836 6.97528 7.16386Z" fill="#494849"/>
<path d="M9.56063 5.50516L8.20175 2.68286L6.94043 3.28913L8.29931 6.11143C8.69652 5.86753 9.11464 5.66544 9.56063 5.50516Z" fill="#494849"/>
<path d="M11.9098 5.0871C12.1467 5.0871 12.3767 5.10104 12.6136 5.12195V2H11.2129V5.12195C11.4429 5.10104 11.6728 5.0871 11.9098 5.0871Z" fill="#494849"/>
<path d="M5.36585 9.78402L2.31359 9.08716L2 10.453L5.05227 11.1499C5.11498 10.683 5.21951 10.223 5.36585 9.78402Z" fill="#494849"/>
<path d="M17.7207 8.26478L20.1667 6.31356L19.2956 5.21948L16.8496 7.1707C17.1771 7.5052 17.4628 7.86757 17.7207 8.26478Z" fill="#494849"/>
<path d="M15.526 6.11851L16.8849 3.29621L15.6235 2.68994L14.2646 5.51224C14.7037 5.66555 15.1288 5.87461 15.526 6.11851Z" fill="#494849"/>
<path d="M18.7667 11.1567L21.819 10.4598L21.5054 9.09399L18.4531 9.79086C18.5995 10.2299 18.711 10.6828 18.7667 11.1567Z" fill="#494849"/>
</svg>
