<svg width="24" height="24" viewBox="0 0 24 24" fill="none" xmlns="http://www.w3.org/2000/svg">
<path d="M13.1437 20.8627C13.0856 20.8634 13.0276 20.8606 12.9698 20.8544C12.6987 20.826 12.4292 20.783 12.1626 20.7256L12.124 20.7242L12.0605 20.7048C11.8522 20.6425 11.6562 20.5829 11.4175 20.5331C11.3323 20.5175 11.248 20.4972 11.165 20.4721C11.0919 20.4514 11.0146 20.432 10.9359 20.414C10.8573 20.396 10.7635 20.3766 10.6738 20.36L10.493 20.3253L10.3329 20.2838C10.1356 20.2311 9.95072 20.191 9.7741 20.1591H9.7479L9.67476 20.1397C9.53676 20.1037 9.41397 20.0732 9.3022 20.0511H9.29391C9.22907 20.0372 9.1642 20.0262 9.09522 20.0151C9.02622 20.004 8.96552 19.9957 8.89928 19.9818H8.89101L8.57363 19.914H8.54329C8.42048 19.8876 8.29905 19.8627 8.16934 19.8309H8.15967C8.02579 19.7931 7.89445 19.7469 7.76642 19.6924L7.69054 19.6591C7.53201 19.5934 7.37764 19.518 7.22828 19.4334L7.21174 19.4237C7.03924 19.3129 6.85712 19.1841 6.66808 19.0428L6.65288 19.0317C6.10048 18.6009 5.6637 18.0387 5.38206 17.396L5.3724 17.3738C5.3034 17.2021 5.23442 17.0359 5.13919 16.842L5.06745 16.6855V16.673C5.01088 16.5345 4.94878 16.396 4.87703 16.2575V16.2464C4.86737 16.2242 4.8522 16.1979 4.837 16.1688C4.80115 16.1073 4.76933 16.0434 4.7418 15.9777C4.70455 15.8918 4.66315 15.8004 4.61899 15.709C4.51138 15.5054 4.42858 15.3254 4.35544 15.1647C4.28233 15.004 4.21746 14.8669 4.15399 14.7492C4.10492 14.666 4.06069 14.5799 4.02152 14.4916C4.00082 14.4459 3.98151 14.4043 3.96218 14.3683L3.69036 13.8586L3.61172 13.6606C3.55652 13.5221 3.50961 13.3836 3.47372 13.245C3.44888 13.1661 3.42544 13.083 3.40335 12.9999V12.9874C3.37575 12.9043 3.3661 12.8295 3.35644 12.7506L3.34817 12.691C3.32333 12.4805 3.30538 12.2575 3.29297 12.0207V11.9833C3.304 11.7464 3.32194 11.5235 3.34678 11.3199L3.35507 11.2603C3.36471 11.1841 3.37438 11.1052 3.39231 11.0249V11.011C3.41438 10.9279 3.43785 10.8462 3.46268 10.7658C3.50545 10.6274 3.55238 10.4888 3.60756 10.3503L3.68623 10.1523L3.96218 9.64398C3.98151 9.60795 4.00082 9.56503 4.02152 9.5207C4.05898 9.4361 4.10136 9.35377 4.14846 9.27416C4.2147 9.15922 4.2768 9.0221 4.34993 8.85866C4.42307 8.69523 4.50585 8.51795 4.61209 8.31435C4.65625 8.22294 4.69765 8.1329 4.7349 8.04703C4.76218 7.98073 4.794 7.9164 4.83013 7.85452C4.8453 7.82681 4.86047 7.7991 4.87013 7.77834V7.76726C4.94188 7.62875 5.00811 7.49025 5.06055 7.35174V7.34066C5.08952 7.27972 5.11575 7.22156 5.14195 7.16477C5.22613 6.97918 5.30063 6.81851 5.36687 6.65231L5.37653 6.63015C5.65723 5.98721 6.09362 5.42492 6.64598 4.99442L6.65978 4.98335C6.84882 4.84485 7.03234 4.71326 7.20345 4.60247L7.21864 4.59277C7.36508 4.50924 7.51671 4.43522 7.6726 4.37117L7.74297 4.3407C7.87519 4.28338 8.01066 4.2339 8.14864 4.1925H8.15967C8.29077 4.16203 8.41219 4.13572 8.535 4.11077L8.88825 4.0346C8.95585 4.02075 9.02622 4.00967 9.09246 3.9986C9.1587 3.98752 9.2263 3.97644 9.29391 3.96536H9.3022C9.44018 3.93905 9.58645 3.90026 9.7465 3.85871H9.7741C9.95211 3.82685 10.1356 3.78669 10.3371 3.73406L10.5206 3.68557L10.6738 3.65788C10.7635 3.63986 10.8518 3.62186 10.9359 3.60247C11.0201 3.58307 11.0919 3.56647 11.165 3.54568L11.194 3.53737C11.2657 3.518 11.3389 3.49721 11.4175 3.48337C11.6659 3.43211 11.8687 3.3698 12.0853 3.3033L12.1543 3.28391C12.4203 3.22305 12.6893 3.17636 12.9602 3.14402C13.0593 3.13526 13.1591 3.13526 13.2582 3.14402C13.3479 3.14402 13.4404 3.15373 13.5342 3.16202C13.628 3.17034 13.7384 3.18005 13.8447 3.19389H13.8805C13.9233 3.19389 13.973 3.20497 14.0185 3.21328L14.0558 3.21744L14.2255 3.26038C14.4573 3.31993 14.6712 3.38225 14.8657 3.44735L14.8892 3.45566C15.0555 3.52475 15.218 3.6024 15.3763 3.68835L15.4287 3.71882C15.5494 3.78277 15.6656 3.85496 15.7764 3.93489C15.8882 4.0263 15.9876 4.10385 16.08 4.18695L16.1048 4.20774C16.189 4.27837 16.269 4.34623 16.3546 4.41272C16.4043 4.45427 16.4526 4.4972 16.4926 4.53875C16.5326 4.5803 16.5947 4.63432 16.6485 4.67726L16.6568 4.68418C16.723 4.74097 16.7948 4.79915 16.8844 4.86562L17.0224 4.9695L17.0376 4.98195C17.1756 5.10107 17.3219 5.2188 17.4874 5.34345L17.5026 5.35592C18.1512 5.8947 18.5223 6.16616 18.8825 6.42933L18.9708 6.49442C19.0053 6.5235 19.0411 6.55397 19.0784 6.58305C19.2625 6.72671 19.4342 6.88562 19.5917 7.05812L19.6 7.06781C19.7104 7.20633 19.8166 7.34482 19.9243 7.49302V7.50273C19.9381 7.52212 19.9519 7.54288 19.967 7.56227C20.0188 7.63481 20.0649 7.71123 20.105 7.79081C20.1561 7.88775 20.2071 7.99025 20.2582 8.0955C20.4325 8.4407 20.5583 8.80845 20.6321 9.1883L20.6487 9.26032C20.6774 9.38902 20.6927 9.5204 20.6942 9.65229V9.73815V9.74786C20.6942 9.88635 20.6942 10.0041 20.6942 10.1315V10.3365L20.6804 10.5387C20.6707 10.6772 20.6666 10.7936 20.6666 10.9154C20.6666 10.9847 20.6666 11.0553 20.6666 11.1273V11.137C20.6666 11.1911 20.6666 11.2423 20.6666 11.2922C20.6666 11.342 20.6666 11.3656 20.6666 11.3988C20.6666 11.5802 20.6666 11.7686 20.6763 11.9777V12.0152C20.6666 12.2326 20.6625 12.421 20.6666 12.5927L20.6763 12.8586V12.8725C20.6763 12.9445 20.6763 13.011 20.6763 13.0844C20.6763 13.2063 20.6763 13.3254 20.6901 13.4625L20.7066 13.6619V13.8586C20.7066 13.9833 20.7066 14.1079 20.7066 14.2409L20.6914 14.4985V14.5788L20.6652 14.7173C20.6321 14.8835 20.5907 15.0511 20.5383 15.2284C20.4735 15.4566 20.3857 15.6775 20.2761 15.8877C20.1806 16.1039 20.0637 16.31 19.927 16.5026C19.8221 16.6522 19.7186 16.788 19.6124 16.9181C19.5551 16.9912 19.4909 17.0584 19.4206 17.119L19.2675 17.2575C19.1681 17.3447 19.0715 17.4237 18.9735 17.5026L18.9597 17.5137L18.8687 17.5802C18.514 17.8406 18.147 18.1107 17.5136 18.6384L17.5054 18.6467C17.3384 18.7713 17.1922 18.8891 17.0555 19.0082L17.0417 19.0192C16.9893 19.0622 16.9369 19.101 16.8872 19.1397C16.8113 19.1979 16.7382 19.2533 16.6775 19.306C16.6195 19.353 16.5643 19.4029 16.5119 19.4528C16.4595 19.5026 16.425 19.5317 16.3739 19.5691L16.3629 19.5788C16.2773 19.6467 16.1973 19.7173 16.1131 19.7852L16.0883 19.8045C15.9917 19.8863 15.8965 19.9652 15.7916 20.0483C15.6843 20.1272 15.5713 20.198 15.4536 20.2602L15.3887 20.2976C15.2507 20.3738 15.0879 20.4555 14.903 20.5331L14.8768 20.5442C14.6822 20.6093 14.4628 20.6716 14.2393 20.7297L14.0461 20.7782C13.9951 20.7879 13.9468 20.7935 13.9081 20.7976H13.8667C13.7591 20.8101 13.6542 20.8212 13.5549 20.8295H13.5466L13.4348 20.8378C13.3272 20.8627 13.2361 20.8627 13.1437 20.8627ZM12.3268 19.9929C12.5638 20.0436 12.8033 20.0816 13.0443 20.1065H13.0526C13.1578 20.1152 13.2634 20.1152 13.3686 20.1065L13.4831 20.0982C13.5728 20.0982 13.6666 20.0816 13.7591 20.0691H13.8074L13.8902 20.058L14.0489 20.0178C14.2517 19.9666 14.4449 19.9098 14.6187 19.8517C14.7926 19.7935 14.9099 19.7131 15.023 19.6536L15.0796 19.6217C15.1655 19.577 15.248 19.526 15.3266 19.4694C15.4232 19.3946 15.5129 19.3198 15.6026 19.2436L15.626 19.2242C15.7088 19.155 15.7944 19.0857 15.8854 19.0095C15.9199 18.9805 15.9558 18.9472 15.9931 18.9126C16.0303 18.878 16.1145 18.8018 16.1849 18.7436C16.2552 18.6854 16.3422 18.6162 16.4263 18.5511L16.5643 18.4445C16.7106 18.317 16.8679 18.191 17.0431 18.0594C17.6889 17.5206 18.0642 17.245 18.423 16.9791L18.5058 16.9168C18.5982 16.842 18.6838 16.7783 18.7721 16.6965L18.9183 16.558C18.9563 16.5261 18.991 16.4904 19.0218 16.4514V16.4417C19.1198 16.3254 19.2136 16.2021 19.3088 16.065L19.3185 16.0525C19.426 15.8988 19.5184 15.7351 19.5945 15.5636C19.6856 15.3986 19.7605 15.2251 19.818 15.0456V15.0303C19.8649 14.8697 19.9022 14.7201 19.9325 14.5719L19.9491 14.486L19.956 14.4071L19.9657 14.2146C19.9657 14.0941 19.9657 13.9833 19.9657 13.8586V13.691L19.9615 13.5221C19.9519 13.3683 19.9463 13.2312 19.9463 13.0927C19.9463 13.0161 19.9463 12.9399 19.9463 12.8642L19.9381 12.619C19.9381 12.4334 19.9381 12.2326 19.9477 12.0041C19.9367 11.7852 19.9339 11.5886 19.9381 11.3919C19.9381 11.3448 19.9381 11.2991 19.9381 11.2534C19.9381 11.2077 19.9381 11.1786 19.9381 11.1467C19.9381 11.0664 19.9381 10.9875 19.9381 10.9099C19.9381 10.7714 19.9381 10.6329 19.9546 10.4805L19.967 10.306V10.1412C19.967 10.0179 19.967 9.90575 19.967 9.78663C19.967 9.75478 19.967 9.72292 19.967 9.68968C19.967 9.60778 19.9587 9.52612 19.9422 9.44591L19.9243 9.36697C19.8647 9.04959 19.7607 8.74228 19.6152 8.45424V8.44177C19.5669 8.33928 19.5172 8.24094 19.4689 8.14953V8.13984C19.4447 8.09482 19.417 8.05175 19.3861 8.01103L19.3337 7.93485C19.2398 7.79634 19.1488 7.6814 19.0577 7.5678C18.9268 7.42717 18.7846 7.29748 18.6327 7.18001L18.5278 7.09275L18.4699 7.04981C18.1028 6.78112 17.7234 6.50272 17.0611 5.95425C16.8858 5.82268 16.7299 5.69664 16.5837 5.56923L16.4636 5.47642C16.3711 5.40716 16.2856 5.33792 16.2028 5.27004C16.12 5.20217 16.0745 5.15786 16.0193 5.108L15.9048 5.00413C15.8137 4.93211 15.7281 4.86562 15.644 4.79083L15.6205 4.77005C15.5295 4.69387 15.4398 4.62047 15.3445 4.5443C15.2541 4.4841 15.1601 4.42952 15.0631 4.38086L15.0217 4.35315C14.8837 4.28113 14.7622 4.21466 14.6174 4.15648C14.4421 4.09832 14.2489 4.04152 14.042 3.98889L13.8902 3.9515L13.7908 3.93765H13.755L13.479 3.90857C13.3934 3.90857 13.3093 3.8961 13.2292 3.89334C13.1737 3.88809 13.1178 3.88809 13.0623 3.89334H13.0485C12.8078 3.91747 12.5687 3.95537 12.3323 4.00691H12.313C12.07 4.08551 11.8231 4.15162 11.5734 4.20495H11.5569C11.5168 4.20495 11.4644 4.22713 11.4092 4.24237L11.3733 4.25205C11.2892 4.2756 11.2023 4.29637 11.1139 4.31715L10.8104 4.38086L10.6724 4.40578L10.5261 4.44457C10.3095 4.50135 10.1122 4.54569 9.92037 4.58308C9.75617 4.626 9.60025 4.66755 9.44845 4.69665C9.36705 4.71465 9.2884 4.72712 9.21803 4.7382C9.14766 4.74928 9.1035 4.7562 9.0552 4.76589L8.69783 4.84346C8.58053 4.86701 8.46739 4.89056 8.35011 4.91825C8.24329 4.95202 8.13827 4.99132 8.0355 5.03597L7.9803 5.05952C7.8543 5.11271 7.73132 5.17282 7.61187 5.23959C7.45872 5.3393 7.29591 5.45287 7.12618 5.5803C6.66381 5.93735 6.2992 6.40625 6.06645 6.94316C5.9947 7.12322 5.91467 7.28942 5.83189 7.47918L5.75462 7.64677C5.69115 7.7991 5.61662 7.9473 5.54488 8.10243L5.48554 8.21462C5.46424 8.25073 5.44534 8.28821 5.42897 8.3268V8.33928C5.3862 8.43761 5.33927 8.5401 5.29099 8.64399V8.65644C5.19302 8.84343 5.11435 9.01655 5.04398 9.1689C4.9683 9.3314 4.88449 9.48997 4.79286 9.64398C4.75995 9.70149 4.73001 9.76065 4.70316 9.82125C4.67833 9.87528 4.65212 9.93067 4.62038 9.98745L4.36924 10.4653L4.30853 10.6135C4.26023 10.7381 4.21883 10.8573 4.18159 10.9791C4.16089 11.0456 4.14156 11.1176 4.12225 11.1869C4.11259 11.2312 4.10708 11.2838 4.09879 11.3462L4.09052 11.4085C4.06982 11.5899 4.05325 11.788 4.04222 11.9985C4.05325 12.2104 4.06982 12.414 4.09052 12.5899L4.09879 12.6536C4.10708 12.7146 4.11259 12.7672 4.12225 12.8115C4.14156 12.8822 4.16089 12.95 4.18159 13.0207C4.21883 13.1412 4.26023 13.2603 4.30853 13.3849L4.36924 13.5373L4.61899 14.0054C4.64935 14.0622 4.67558 14.1176 4.70042 14.1716C4.72712 14.2337 4.75705 14.2942 4.7901 14.3531C4.87427 14.4999 4.94878 14.6606 5.02605 14.8323C5.10332 15.004 5.17508 15.1578 5.27443 15.3447V15.3572C5.3241 15.4611 5.371 15.5636 5.4124 15.6619V15.673C5.42931 15.7118 5.44819 15.7497 5.46898 15.7866C5.4883 15.8198 5.509 15.8586 5.52831 15.9002C5.60698 16.0539 5.67595 16.2021 5.73943 16.3544L5.80705 16.504C5.89813 16.7021 5.97677 16.8738 6.05128 17.058C6.28422 17.5956 6.64933 18.065 7.11238 18.4223C7.28211 18.5483 7.44493 18.6633 7.5981 18.763C7.72108 18.831 7.84776 18.892 7.97755 18.9458L8.03826 18.9708C8.13555 19.0142 8.23557 19.0512 8.33768 19.0816C8.45498 19.1093 8.56812 19.1328 8.68264 19.1577H8.713C8.81925 19.1799 8.92965 19.2021 9.04416 19.2284C9.09109 19.2381 9.1449 19.2464 9.20147 19.2561C9.25804 19.2658 9.35325 19.2796 9.43742 19.2976C9.5754 19.3239 9.7051 19.3586 9.85137 19.396L9.91071 19.4112C10.1025 19.4458 10.2998 19.4901 10.5137 19.5497L10.6614 19.5899L10.7993 19.6148C10.9014 19.6328 10.9994 19.6536 11.0932 19.6757C11.1871 19.6979 11.2699 19.7173 11.354 19.7408C11.4125 19.7588 11.472 19.7736 11.532 19.7852H11.5472C11.8232 19.8419 12.0439 19.9098 12.2606 19.9749L12.3268 19.9929Z" fill="black"/>
<path d="M10.9477 20.0496C10.8856 20.0496 10.8207 20.0496 10.7559 20.0496H10.7338C10.6869 20.0496 10.6331 20.0496 10.5737 20.033H10.5544C10.4992 20.0205 10.4413 20.008 10.3833 19.9928C10.1706 19.9405 9.96394 19.8662 9.76652 19.7712L9.74444 19.7601C9.58234 19.6665 9.43182 19.554 9.29599 19.4249C9.1753 19.3124 9.06831 19.186 8.97724 19.0482C8.89583 18.9194 8.83097 18.7947 8.77165 18.6798L8.72749 18.5939C8.68609 18.5122 8.64608 18.4332 8.60468 18.3585V18.3501L8.57157 18.285C8.5297 18.2029 8.48363 18.1229 8.43357 18.0455C8.36946 17.9492 8.29645 17.8593 8.21556 17.7767L8.20452 17.7629C8.11572 17.6592 8.01524 17.5663 7.9051 17.4859L7.88854 17.4734C7.44974 17.1078 7.08961 17.0219 6.67152 16.9194L6.52525 16.8848L6.46731 16.846C6.18231 16.7763 5.90995 16.6623 5.66009 16.5081H5.6518C5.50069 16.4036 5.36183 16.2823 5.23786 16.1466C5.08178 15.9754 4.95454 15.7799 4.86115 15.5676C4.67011 15.1973 4.58421 14.7814 4.61279 14.3654C4.62192 14.2049 4.65301 14.0465 4.70524 13.8945L4.71764 13.8571C4.76116 13.7249 4.81135 13.595 4.86805 13.4679L4.94946 13.2795L5.03226 13.1092C5.08032 13.0109 5.12093 12.909 5.15369 12.8045C5.17024 12.7519 5.18266 12.7006 5.1937 12.6494V12.6369C5.1937 12.6147 5.20336 12.5926 5.20887 12.5704C5.2144 12.5483 5.22957 12.4859 5.23647 12.4485C5.26069 12.3115 5.2681 12.1719 5.25854 12.033V11.9915C5.27119 11.8553 5.26748 11.7182 5.24751 11.5829C5.24061 11.5455 5.23096 11.5053 5.21991 11.461C5.21991 11.4389 5.20887 11.4167 5.20474 11.3945V11.3807C5.1937 11.3294 5.18127 11.2796 5.16473 11.2269C5.13222 11.1219 5.09164 11.0196 5.04329 10.9209L4.94946 10.7283L4.87634 10.558C4.82528 10.4389 4.77284 10.3101 4.72594 10.1674L4.7149 10.1328C4.66152 9.9801 4.62994 9.82063 4.62106 9.65908C4.59319 9.24296 4.67959 8.82714 4.87081 8.45687C4.96328 8.24413 5.09061 8.04845 5.24751 7.87794C5.37184 7.74213 5.51065 7.62043 5.66146 7.51507H5.66974C5.92021 7.3598 6.19358 7.24526 6.47971 7.17573L6.52111 7.16465L6.65909 7.12865C7.07305 7.03031 7.43871 6.94443 7.87887 6.57463L7.89544 6.56216C8.00558 6.48176 8.10606 6.3888 8.19486 6.28515L8.20729 6.26992C8.28814 6.18823 8.36069 6.09868 8.42393 6.00262V5.99568C8.47289 5.92168 8.51757 5.84493 8.55777 5.76577L8.59778 5.68822V5.68128C8.63918 5.60649 8.67919 5.52894 8.72059 5.44582C8.73576 5.41813 8.74956 5.38903 8.76475 5.35995C8.82696 5.23415 8.89559 5.11164 8.97034 4.99293C9.06162 4.85576 9.16862 4.72978 9.28909 4.61758C9.42831 4.48263 9.58356 4.36541 9.75134 4.26855L9.77892 4.25887C9.97637 4.16383 10.1831 4.08956 10.3957 4.03725C10.4537 4.02202 10.5116 4.00955 10.5668 3.9971H10.5944C10.6551 3.98878 10.7131 3.98463 10.7669 3.98047C10.8759 3.98047 10.9808 3.98047 11.0815 3.98047H11.0898C11.2833 3.98501 11.475 4.0191 11.6583 4.08157C11.9326 4.18685 12.1912 4.32945 12.4269 4.5054L12.4462 4.51925L12.5276 4.58572C12.6761 4.71549 12.8353 4.83225 13.0036 4.93475L13.1085 4.99293C13.1788 5.0349 13.2521 5.07148 13.3279 5.10234H13.3362C13.3931 5.12606 13.4517 5.14552 13.5114 5.16052L13.6494 5.19652L13.7584 5.22838C13.8903 5.26443 14.026 5.28442 14.1627 5.28793H14.1917C14.3036 5.29965 14.4164 5.29965 14.5284 5.28793C14.6001 5.28101 14.6788 5.26578 14.7629 5.24915L14.8747 5.22838C14.963 5.21315 15.0472 5.19652 15.1383 5.17713L15.2321 5.15773C15.359 5.13281 15.497 5.1065 15.646 5.08987H15.6557C15.8182 5.0766 15.9816 5.08218 16.1428 5.1065C16.3323 5.13163 16.5177 5.18096 16.6947 5.2533L16.7085 5.26023C16.9034 5.35599 17.0883 5.47106 17.2605 5.60373L17.2743 5.6148C18.0594 6.26853 18.1449 6.93474 18.1643 7.50815V7.52199C18.1584 7.75931 18.1695 7.99676 18.1974 8.23252V8.25883C18.2354 8.51538 18.3141 8.76414 18.4306 8.99565C18.5463 9.23512 18.7001 9.45405 18.8859 9.64385L18.8983 9.65492C19.0656 9.8232 19.2435 9.98051 19.431 10.1258H19.4392L19.6103 10.2713C19.6642 10.3253 19.7125 10.3751 19.758 10.425C19.8651 10.5433 19.9612 10.6713 20.045 10.8073C20.0921 10.8838 20.1349 10.9629 20.1733 11.0441V11.0566C20.2114 11.1496 20.2423 11.2455 20.2658 11.3433C20.3184 11.557 20.3489 11.7756 20.3568 11.9956V12.0289C20.3478 12.2483 20.3173 12.4664 20.2658 12.6798C20.2422 12.7793 20.2104 12.8766 20.1706 12.9707V12.979C20.1319 13.0593 20.0892 13.1397 20.0436 13.2145C19.9589 13.3506 19.8624 13.479 19.7552 13.5981C19.6987 13.6604 19.6504 13.7103 19.6035 13.7546L19.5841 13.7712L19.4365 13.8959L19.3468 13.9693C18.9908 14.2588 18.7107 14.4887 18.454 15.0247C18.4044 15.1299 18.3657 15.2352 18.3285 15.3363L18.2871 15.4485C18.2532 15.5528 18.231 15.6606 18.2208 15.7698V15.7809C18.1927 16.0162 18.1812 16.2531 18.1863 16.4901V16.5053C18.167 17.0787 18.0801 17.7518 17.295 18.3972L17.2812 18.4069C17.1091 18.5401 16.9242 18.6556 16.7292 18.7518H16.7127C16.5353 18.8231 16.35 18.8724 16.1607 18.8986C15.9986 18.9228 15.8343 18.9284 15.6709 18.9152C15.5205 18.8972 15.3825 18.8723 15.2569 18.846L15.1631 18.8266C15.0734 18.8086 14.9878 18.7906 14.9037 18.7767L14.8071 18.7587C14.7253 18.7399 14.6423 18.7265 14.5587 18.7186C14.4463 18.7069 14.3331 18.7069 14.2207 18.7186H14.1945C14.0578 18.7221 13.9221 18.7421 13.7901 18.7781C13.7529 18.7878 13.717 18.7975 13.6811 18.81H13.6536L13.5363 18.8377C13.4769 18.8539 13.4184 18.8734 13.361 18.8958H13.3527C13.2795 18.9264 13.2085 18.962 13.1402 19.0025L13.0271 19.0648C12.8607 19.1644 12.7032 19.2784 12.5566 19.4055L12.4696 19.4762L12.4517 19.49C12.2136 19.6686 11.9522 19.8135 11.6748 19.9208C11.4914 19.9825 11.2998 20.0161 11.1063 20.0205C11.0291 20.0496 10.9891 20.0496 10.9477 20.0496ZM10.8097 19.2947C10.8883 19.2947 10.9656 19.2947 11.0387 19.2947C11.1566 19.2934 11.2737 19.2752 11.3865 19.2407C11.6013 19.1598 11.8034 19.0483 11.9867 18.9097L12.0612 18.8488C12.2436 18.6932 12.4394 18.5541 12.6463 18.4332H12.6559C12.6877 18.418 12.7194 18.4 12.7511 18.382C12.8515 18.322 12.9568 18.2706 13.0657 18.2283C13.1509 18.1945 13.238 18.1658 13.3265 18.1424L13.4438 18.1147C13.488 18.1008 13.5335 18.087 13.5818 18.0759C13.7644 18.0272 13.9518 17.9993 14.1406 17.9928C14.2975 17.9769 14.4556 17.9769 14.6125 17.9928C14.722 18.0036 14.8307 18.0208 14.9382 18.0441L15.0237 18.0607C15.1203 18.0759 15.2142 18.0967 15.2997 18.1147L15.3908 18.1341C15.4998 18.1549 15.6171 18.177 15.7385 18.1909C15.844 18.1984 15.9499 18.1943 16.0545 18.1784C16.1764 18.162 16.296 18.1308 16.4105 18.0856C16.5538 18.0086 16.6897 17.9181 16.8162 17.8155C17.3543 17.3654 17.4136 16.9485 17.4302 16.4887C17.4249 16.2217 17.4382 15.9546 17.4702 15.6895C17.4862 15.5251 17.5204 15.3629 17.5723 15.2061V15.1895C17.5861 15.1553 17.5999 15.1193 17.6137 15.0815C17.6551 14.9679 17.7006 14.8405 17.7655 14.7034C18.0189 14.18 18.3983 13.7282 18.8694 13.389L18.9535 13.3197L19.0915 13.2062C19.1233 13.1757 19.1564 13.1397 19.1964 13.0953C19.2734 13.0097 19.3422 12.9169 19.402 12.8183C19.4339 12.7665 19.463 12.7128 19.4889 12.6577C19.5103 12.6022 19.5279 12.5453 19.5414 12.4873C19.58 12.3288 19.6031 12.1669 19.6103 12.0039C19.6035 11.8414 19.5804 11.6799 19.5414 11.522C19.5275 11.4632 19.51 11.4054 19.4889 11.3488C19.4627 11.2948 19.4337 11.2408 19.4034 11.1909C19.3427 11.0926 19.2735 10.9999 19.1964 10.9139C19.1647 10.8793 19.1302 10.8419 19.0901 10.8031L18.9522 10.6923C18.7427 10.5301 18.544 10.3543 18.3574 10.166C18.1223 9.92193 17.928 9.6413 17.782 9.335L17.7682 9.30729C17.6169 8.99925 17.5167 8.6685 17.4716 8.32807C17.4416 8.0642 17.4291 7.79861 17.4343 7.53307C17.4192 7.07463 17.3598 6.65773 16.8217 6.20621C16.6921 6.1074 16.5535 6.02115 16.4077 5.9486C16.2932 5.9033 16.1737 5.87214 16.0517 5.85579C15.9467 5.8398 15.8403 5.83563 15.7344 5.84334C15.6143 5.85579 15.497 5.87797 15.3894 5.90013L15.2969 5.91952C15.2045 5.93752 15.1093 5.95828 15.0113 5.97352L14.9161 5.99291C14.8145 6.01488 14.7118 6.0315 14.6084 6.04278C14.4515 6.0587 14.2934 6.0587 14.1365 6.04278C13.95 6.03564 13.7649 6.00778 13.5846 5.95968C13.539 5.9472 13.4935 5.93475 13.4466 5.92089L13.3293 5.89181C13.2408 5.86886 13.1537 5.84066 13.0685 5.80732C12.957 5.7626 12.849 5.70935 12.7456 5.64804L12.6559 5.59957C12.4474 5.47858 12.2498 5.33953 12.0653 5.18407L11.9964 5.12728C11.8153 4.98945 11.6161 4.87758 11.4044 4.79486H11.3961C11.2839 4.76028 11.1672 4.74208 11.0498 4.74084C10.973 4.73675 10.8961 4.73675 10.8193 4.74084C10.7821 4.74084 10.7434 4.74084 10.7076 4.74915L10.5848 4.77825C10.4214 4.81477 10.262 4.86718 10.1087 4.93475C10.002 4.9973 9.90289 5.07215 9.81342 5.15773C9.7351 5.22939 9.6652 5.30977 9.60507 5.39735C9.54021 5.50123 9.48503 5.60788 9.43397 5.70622C9.42017 5.7353 9.40499 5.763 9.39119 5.79071C9.34842 5.87381 9.30565 5.95968 9.25322 6.04554C9.24079 6.0677 9.22838 6.09125 9.21732 6.1148C9.16647 6.21652 9.11029 6.31545 9.049 6.4112C8.96204 6.54247 8.86369 6.66575 8.75509 6.77962C8.63172 6.92212 8.49287 7.05035 8.34113 7.16188C7.76849 7.63556 7.2883 7.74913 6.8233 7.85439L6.68532 7.88625H6.66599C6.45496 7.9358 6.25261 8.01703 6.06576 8.12724C5.96198 8.20147 5.86666 8.28693 5.78151 8.38209L5.77186 8.39317C5.67539 8.5109 5.5981 8.64318 5.54279 8.78514L5.53589 8.79759C5.40548 9.05403 5.34773 9.34149 5.36894 9.62861V9.64385C5.37728 9.73854 5.39815 9.83171 5.43104 9.92085V9.9458C5.46829 10.0594 5.51382 10.1688 5.55659 10.2699L5.62559 10.4306L5.70837 10.5995C5.77249 10.7316 5.82691 10.8681 5.87121 11.0081C5.89328 11.0829 5.91261 11.1591 5.92778 11.2339L5.94019 11.2837C5.95261 11.3364 5.96779 11.3959 5.97882 11.461C6.00953 11.644 6.02018 11.8298 6.01058 12.015C6.02029 12.2003 6.00964 12.3861 5.97882 12.569C5.96779 12.6355 5.95261 12.6951 5.93881 12.7491C5.93881 12.7643 5.93881 12.7809 5.92778 12.7976C5.91235 12.8738 5.89302 12.9491 5.86981 13.0233C5.82664 13.1631 5.77266 13.2992 5.70837 13.4305L5.63939 13.5995L5.57039 13.7602C5.52762 13.8613 5.48209 13.9707 5.44482 14.0843L5.43655 14.1106C5.40449 14.1999 5.38407 14.293 5.37584 14.3876C5.3554 14.6748 5.41362 14.9622 5.54419 15.2186V15.2311C5.60485 15.3724 5.68729 15.5032 5.78841 15.6189L5.79807 15.6286C5.88334 15.7241 5.97916 15.8096 6.08369 15.8834C6.26896 15.9938 6.47001 16.0751 6.67979 16.1244H6.70186L6.83986 16.1576C7.30349 16.2671 7.78367 16.382 8.35769 16.8502C8.50945 16.9622 8.64831 17.0909 8.77165 17.2338C8.88047 17.3475 8.97882 17.4708 9.06554 17.6022C9.12488 17.7065 9.17877 17.8137 9.22699 17.9236L9.25596 17.9804C9.30289 18.0662 9.34703 18.1521 9.39396 18.2352L9.43536 18.3183C9.4864 18.418 9.54297 18.5247 9.60784 18.6285C9.66685 18.7166 9.73637 18.797 9.81482 18.8682C9.90428 18.9537 10.0034 19.0286 10.1101 19.0911C10.2589 19.1611 10.4142 19.2163 10.5737 19.256L10.7007 19.2851C10.7283 19.2851 10.7586 19.2851 10.7917 19.2933L10.8097 19.2947Z" fill="black"/>
<path d="M13.2966 18.5218H13.1669C13.0044 18.518 12.8434 18.4895 12.6895 18.4373C12.4603 18.3493 12.2444 18.23 12.0478 18.0827L12.0299 18.0688L11.9582 18.0107C11.8439 17.9119 11.7216 17.8229 11.5925 17.7448C11.5621 17.7295 11.5318 17.7115 11.5 17.6935C11.4489 17.6639 11.3958 17.6375 11.3414 17.6146H11.3317C11.2866 17.5975 11.2405 17.5832 11.1937 17.5716L11.0723 17.5425C11.0451 17.5328 11.0175 17.5244 10.9895 17.5176C10.8885 17.4909 10.7848 17.4756 10.6804 17.4719H10.6542C10.5689 17.463 10.4829 17.463 10.3975 17.4719H10.3906C10.3262 17.4791 10.2622 17.4898 10.1988 17.5037L10.1202 17.519C10.0539 17.5301 9.98221 17.5439 9.91321 17.5592L9.83733 17.5744C9.73383 17.5952 9.62206 17.616 9.49788 17.6298C9.35981 17.6409 9.22096 17.6362 9.08392 17.6159H9.07565C8.91899 17.5943 8.76558 17.5534 8.61892 17.4941L8.60375 17.4858C8.44098 17.4097 8.28652 17.3168 8.14286 17.2087L8.12906 17.1991C7.89127 17.013 7.70015 16.7737 7.57102 16.5003C7.44187 16.2268 7.37827 15.9268 7.38534 15.6243V15.5993C7.39001 15.4143 7.38125 15.2291 7.35911 15.0453V15.0259C7.32851 14.8263 7.26658 14.6327 7.1756 14.4525C7.01696 14.1268 6.77981 13.8459 6.48569 13.6354L6.41531 13.5786C6.17092 13.3953 5.97324 13.1566 5.83846 12.8819C5.70367 12.6072 5.63559 12.3044 5.63984 11.9983V11.9747C5.63784 11.6724 5.70631 11.3738 5.83976 11.1028C5.9732 10.8318 6.16794 10.5958 6.40841 10.4138L6.47879 10.357C6.77321 10.1474 7.01045 9.86689 7.1687 9.54124C7.25902 9.36087 7.3205 9.16737 7.35084 8.96783V8.94981C7.37203 8.76364 7.38035 8.57622 7.37568 8.38887V8.37503C7.36846 8.07205 7.43238 7.7716 7.56232 7.49802C7.69224 7.22444 7.8845 6.98541 8.12356 6.80024L8.13736 6.78917C8.28157 6.67994 8.4359 6.58487 8.59822 6.50524L8.61202 6.49832C8.75876 6.43894 8.91213 6.39754 9.06875 6.37506H9.07702C9.21414 6.35592 9.35289 6.35129 9.49098 6.36119H9.50341C9.62621 6.37506 9.73936 6.39582 9.84284 6.41661L9.91874 6.43322C9.99048 6.44708 10.0567 6.46092 10.1243 6.472L10.2126 6.48863C10.2733 6.50151 10.3345 6.51124 10.3962 6.51771C10.481 6.52664 10.5666 6.52664 10.6514 6.51771H10.6804C10.7816 6.51458 10.8821 6.49971 10.9798 6.47339L11.1592 6.42629C11.2141 6.41402 11.2681 6.39782 11.3207 6.37782L11.3414 6.36951C11.3985 6.34602 11.4539 6.31823 11.5069 6.28641L11.5939 6.23794C11.7245 6.15848 11.8482 6.06814 11.9637 5.96785L12.0299 5.91522L12.0478 5.90136C12.2403 5.75464 12.452 5.63532 12.677 5.5468C12.831 5.49252 12.9927 5.46353 13.1559 5.46094C13.24 5.46094 13.3269 5.46094 13.4153 5.46094C13.4649 5.46094 13.5105 5.46786 13.5615 5.47478H13.5878C13.6333 5.48447 13.6816 5.49557 13.7257 5.50802C13.9067 5.55175 14.0825 5.6149 14.2501 5.69639L14.2708 5.70747C14.4071 5.78408 14.5336 5.8771 14.6475 5.98448C14.7484 6.07823 14.8378 6.18379 14.9138 6.29888C14.98 6.40553 15.0338 6.50663 15.0807 6.60081L15.1166 6.67007C15.1497 6.73654 15.1815 6.79748 15.2146 6.85703V6.86397L15.2477 6.92629C15.2808 6.99139 15.3126 7.05233 15.3457 7.10357V7.11051C15.3945 7.18294 15.4495 7.25106 15.5099 7.3141L15.5237 7.32794C15.5916 7.40762 15.6685 7.47919 15.7527 7.54124L15.7679 7.55372C16.0413 7.77775 16.3688 7.92539 16.7172 7.98169L16.8345 8.00939L16.869 8.01908C17.1061 8.07535 17.3329 8.16884 17.541 8.29609L17.5576 8.30717C17.8354 8.51048 18.0588 8.77964 18.2078 9.09068C18.3569 9.40169 18.4269 9.74492 18.4117 10.0897V10.1022C18.3862 10.3422 18.3209 10.5763 18.2185 10.7947L18.2019 10.8376L18.1357 10.99L18.0681 11.1285C18.0319 11.2049 18.0005 11.2835 17.9743 11.3639C17.962 11.402 17.9523 11.4409 17.9453 11.4803V11.49C17.9453 11.5107 17.9356 11.5315 17.9301 11.5537C17.9246 11.5758 17.9163 11.6146 17.9122 11.6382C17.8953 11.7411 17.8897 11.8456 17.8956 11.9498V11.9983C17.8866 12.3422 17.9711 12.6822 18.1399 12.9816C18.1606 13.026 18.1826 13.0703 18.2019 13.1202L18.2213 13.1659C18.3236 13.3844 18.3893 13.6184 18.4158 13.8584V13.8736C18.43 14.2184 18.3594 14.5614 18.2102 14.8723C18.061 15.1832 17.8378 15.4524 17.5603 15.6561L17.5465 15.6658C17.3399 15.793 17.1145 15.8864 16.8787 15.9428L16.8387 15.9539L16.72 15.983C16.3717 16.0393 16.0446 16.1875 15.772 16.4123L15.7569 16.4248C15.6726 16.4864 15.5958 16.5575 15.5278 16.6367L15.5168 16.6492C15.4556 16.7128 15.3998 16.7814 15.3498 16.8542C15.3139 16.9096 15.2808 16.9747 15.2449 17.0439L15.216 17.1021C15.1829 17.1603 15.1511 17.2226 15.118 17.2891L15.0835 17.3569C15.0352 17.4511 14.9814 17.5536 14.9151 17.6589C14.8359 17.7756 14.7433 17.8825 14.6392 17.9775C14.5259 18.0843 14.4004 18.1773 14.2652 18.2544L14.2432 18.2655C14.0822 18.3426 13.9139 18.4034 13.7409 18.447C13.5971 18.4929 13.4475 18.518 13.2966 18.5218ZM13.2041 17.7697H13.229C13.3369 17.7769 13.4453 17.7675 13.5505 17.742H13.5657C13.688 17.7112 13.8072 17.669 13.9217 17.6159C14.0014 17.5688 14.0755 17.5125 14.1424 17.4484C14.2001 17.3921 14.251 17.3294 14.2942 17.2614C14.3439 17.1824 14.388 17.098 14.4322 17.019L14.4667 16.9525C14.4998 16.8847 14.5357 16.814 14.573 16.7461L14.595 16.706C14.6355 16.6168 14.6816 16.5303 14.733 16.447C14.8056 16.3417 14.8878 16.2434 14.9786 16.1534C15.0787 16.0349 15.1922 15.9284 15.3167 15.8362C15.6752 15.5416 16.1026 15.3438 16.5585 15.2614L16.6648 15.2351H16.6841C16.8435 15.1981 16.9965 15.1374 17.1381 15.055C17.3152 14.9328 17.4555 14.7642 17.5438 14.5675L17.5548 14.5453C17.6534 14.3528 17.6968 14.1366 17.6804 13.9207C17.658 13.7621 17.6114 13.608 17.5424 13.4636L17.5313 13.4359C17.5134 13.3944 17.4941 13.3542 17.4762 13.3154C17.2593 12.9131 17.15 12.4612 17.1588 12.0038C17.1511 11.8481 17.1603 11.6921 17.1864 11.5384C17.1947 11.4858 17.2071 11.4387 17.2168 11.3999C17.2168 11.3861 17.2168 11.3709 17.2264 11.357C17.2393 11.2934 17.2554 11.2305 17.2747 11.1686C17.3129 11.053 17.359 10.94 17.4127 10.8307L17.4789 10.6922L17.5479 10.5315C17.6171 10.3882 17.6636 10.2349 17.6859 10.0772C17.7014 9.86172 17.6574 9.64609 17.5589 9.45398L17.5479 9.43043C17.459 9.23453 17.3188 9.06651 17.1422 8.94428C16.9979 8.85777 16.8417 8.79291 16.6786 8.75177H16.6662L16.5613 8.72682C16.1057 8.64411 15.6785 8.44684 15.3195 8.15344C15.1956 8.06042 15.0822 7.95404 14.9814 7.83625C14.8907 7.74287 14.8094 7.64082 14.7385 7.53156C14.6879 7.45302 14.6419 7.37164 14.6006 7.28779C14.5925 7.26923 14.5833 7.25119 14.573 7.23377C14.5343 7.16314 14.4998 7.09527 14.4653 7.02602L14.4308 6.95952C14.3908 6.88197 14.3467 6.79748 14.2928 6.71714C14.2476 6.65204 14.1953 6.59213 14.1369 6.53847C14.0711 6.47303 13.9979 6.41539 13.9189 6.36674C13.8039 6.31369 13.6843 6.27149 13.5615 6.2407L13.4677 6.21854L13.3849 6.21162C13.3256 6.21162 13.2662 6.21162 13.2097 6.21162C13.1233 6.21267 13.0374 6.22525 12.9544 6.24902H12.9461C12.7833 6.31247 12.6301 6.39824 12.4908 6.50387L12.437 6.54818C12.2855 6.67806 12.1229 6.79439 11.9513 6.89582H11.9444L11.8726 6.93599C11.7889 6.98522 11.7017 7.02827 11.6118 7.0648C11.5221 7.10003 11.4299 7.12829 11.3358 7.14927C11.2875 7.16035 11.242 7.17282 11.1978 7.18667H11.1799C11.0289 7.22704 10.8738 7.24982 10.7177 7.25455C10.5878 7.26764 10.457 7.26764 10.3272 7.25455C10.2395 7.24549 10.1525 7.23162 10.0664 7.213L9.99187 7.19914L9.76143 7.15482L9.68829 7.15067C9.60275 7.13404 9.51168 7.11604 9.41233 7.10496C9.33305 7.10027 9.25351 7.10397 9.17499 7.11604C9.08384 7.12782 8.99441 7.15062 8.90868 7.1839C8.79697 7.23983 8.69071 7.30613 8.59132 7.38197C8.17736 7.72407 8.14012 8.02877 8.12769 8.39027C8.13148 8.60588 8.12088 8.82149 8.09596 9.03569C8.05991 9.31662 7.97737 9.58954 7.85171 9.84317V9.85701C7.64561 10.2864 7.33649 10.6576 6.95206 10.9373L6.88582 10.9914C6.7316 11.1075 6.60641 11.258 6.52019 11.4311C6.43398 11.6042 6.38909 11.7951 6.38909 11.9886C6.38909 12.1821 6.43398 12.373 6.52019 12.546C6.60641 12.7191 6.7316 12.8697 6.88582 12.9858L6.95206 13.0398C7.33567 13.3205 7.64347 13.6927 7.84758 14.1229V14.1368C7.97173 14.391 8.05421 14.6636 8.09182 14.9442C8.11653 15.1584 8.12666 15.3741 8.12216 15.5896C8.13596 15.9525 8.18013 16.2572 8.58856 16.5993C8.68809 16.6746 8.79434 16.7404 8.90594 16.796C8.99193 16.8287 9.08122 16.8519 9.17223 16.8653C9.25031 16.8769 9.32943 16.8801 9.4082 16.8749C9.50341 16.8639 9.59448 16.8473 9.68416 16.8292L9.75729 16.814L9.98634 16.7697L10.0526 16.7572C10.1326 16.742 10.2237 16.724 10.3286 16.7143C10.4585 16.7025 10.5891 16.7025 10.719 16.7143C10.8757 16.7201 11.0312 16.7433 11.1827 16.7835L11.2917 16.8154L11.3855 16.8376C11.4591 16.8565 11.5315 16.8801 11.6021 16.9082C11.6926 16.944 11.7802 16.9866 11.8643 17.0356C11.8892 17.0504 11.914 17.0642 11.9388 17.0772H11.9485C12.1188 17.1759 12.2796 17.2905 12.4287 17.4193L12.488 17.4678C12.6299 17.5766 12.7865 17.6647 12.953 17.7295C13.0345 17.7542 13.119 17.7678 13.2041 17.7697Z" fill="black"/>
</svg>
