<svg width="24" height="24" viewBox="0 0 24 24" fill="none" xmlns="http://www.w3.org/2000/svg">
<path d="M12.6365 11.4333H11.2197V21.5357H12.6365V11.4333Z" fill="#494849"/>
<path d="M11.5117 12.0383L12.3874 10.9348L20.2828 17.2283L19.4 18.3318L11.5117 12.0383Z" fill="#494849"/>
<path d="M21.6847 8.56364L11.8428 10.8088L12.1579 12.19L21.9998 9.94484L21.6847 8.56364Z" fill="#494849"/>
<path d="M12.6858 11.768L11.4043 11.1557L15.7898 2.05713L17.0642 2.6694L12.6858 11.768Z" fill="#494849"/>
<path d="M8.30384 1.99991L7.02734 2.6145L11.4098 11.7168L12.6863 11.1022L8.30384 1.99991Z" fill="#494849"/>
<path d="M12.1593 10.6858L11.8461 12.0598L2 9.81008L2.31325 8.43604L12.1593 10.6858Z" fill="#494849"/>
<path d="M11.5119 10.8354L12.3875 11.939L4.49218 18.2325L3.60938 17.129L11.5119 10.8354Z" fill="#494849"/>
</svg>
