<svg width="24" height="24" viewBox="0 0 24 24" fill="none" xmlns="http://www.w3.org/2000/svg">
<path d="M12.6058 2H11.2051V22H12.6058V2Z" fill="#494849"/>
<path d="M8.19855 2.68437L6.93652 3.29199L15.6125 21.312L16.8745 20.7044L8.19855 2.68437Z" fill="#494849"/>
<path d="M3.65137 6.31356L4.52245 5.21948L20.1601 17.6864L19.282 18.7874L3.65137 6.31356Z" fill="#494849"/>
<path d="M2 10.453L2.31359 9.08716L21.8049 13.5471L21.4983 14.9129L2 10.453Z" fill="#494849"/>
<path d="M2.30662 14.9058L2 13.54L21.4983 9.09399L21.8049 10.4598L2.30662 14.9058Z" fill="#494849"/>
<path d="M19.2885 5.22453L3.64648 17.6865L4.51926 18.782L20.1613 6.32002L19.2885 5.22453Z" fill="#494849"/>
<path d="M15.6197 2.69133L6.92969 20.7053L8.1913 21.3139L16.8813 3.29993L15.6197 2.69133Z" fill="#494849"/>
</svg>
